<?xml version="1.0" encoding="UTF-8" standalone="no"?>
<!-- Svg Vector Icons : http://www.onlinewebfonts.com/icon -->

<svg
   xmlns:dc="http://purl.org/dc/elements/1.1/"
   xmlns:cc="http://creativecommons.org/ns#"
   xmlns:rdf="http://www.w3.org/1999/02/22-rdf-syntax-ns#"
   xmlns:svg="http://www.w3.org/2000/svg"
   xmlns="http://www.w3.org/2000/svg"
   xmlns:sodipodi="http://sodipodi.sourceforge.net/DTD/sodipodi-0.dtd"
   xmlns:inkscape="http://www.inkscape.org/namespaces/inkscape"
   version="1.1"
   x="0px"
   y="0px"
   viewBox="0 0 1000 1000"
   enable-background="new 0 0 1000 1000"
   xml:space="preserve"
   id="svg16"
   sodipodi:docname="alarm.svg"
   inkscape:version="0.92.3 (2405546, 2018-03-11)"><defs
   id="defs20" /><sodipodi:namedview
   pagecolor="#ffffff"
   bordercolor="#666666"
   borderopacity="1"
   objecttolerance="10"
   gridtolerance="10"
   guidetolerance="10"
   inkscape:pageopacity="0"
   inkscape:pageshadow="2"
   inkscape:window-width="809"
   inkscape:window-height="694"
   id="namedview18"
   showgrid="false"
   inkscape:zoom="0.333"
   inkscape:cx="500"
   inkscape:cy="500"
   inkscape:window-x="67"
   inkscape:window-y="27"
   inkscape:window-maximized="0"
   inkscape:current-layer="g14" />
<metadata
   id="metadata2"> Svg Vector Icons : http://www.onlinewebfonts.com/icon <rdf:RDF><cc:Work
     rdf:about=""><dc:format>image/svg+xml</dc:format><dc:type
       rdf:resource="http://purl.org/dc/dcmitype/StillImage" /></cc:Work></rdf:RDF></metadata>
<g
   id="g14"
   style="fill:#808080;fill-opacity:1"><g
     id="g4548"
     transform="translate(0,6)"><path
       d="m 208.75,21.7 c -4.09,1.02 -11.24,3.68 -15.54,5.72 -10.63,5.52 -119.39,102.42 -125.72,112.23 -7.15,10.63 -12.06,31.48 -10.43,43.13 2.45,16.76 9.81,28.82 34.75,56.63 l 24.12,26.99 11.65,-17.79 c 22.08,-33.53 63.58,-78.7 99.15,-107.73 19.22,-15.74 51.92,-37 70.12,-45.59 8.18,-3.88 14.72,-7.97 14.72,-8.79 0,-3.47 -46.2,-51.52 -54.79,-57.04 -14.1,-8.79 -31.48,-11.65 -48.03,-7.76 z"
       id="path4"
       style="fill:#808080;fill-opacity:1;stroke-width:0.1"
       inkscape:connector-curvature="0" /><path
       d="m 763.41,23.49 c -14.92,3.88 -23.71,10.43 -46.61,34.75 -22.28,23.71 -27.6,30.25 -25.96,31.69 0.2,0.2 8.38,4.5 17.99,9.2 57.24,28.62 128.38,94.24 167.02,153.52 l 10.22,15.74 24.12,-26.98 c 24.94,-27.8 32.3,-39.86 34.75,-56.63 1.63,-11.65 -3.27,-32.5 -10.43,-43.13 -8.18,-12.67 -116.52,-107.73 -129.2,-113.66 -12.06,-5.52 -30.05,-7.36 -41.9,-4.5 z"
       id="path6"
       style="fill:#808080;fill-opacity:1;stroke-width:0.1"
       inkscape:connector-curvature="0" /><path
       d="m 463.29,64.27 c -2.86,0.41 -13.29,1.84 -23.51,3.07 -23.51,2.86 -66.23,13.7 -90.56,23.1 -225.07,86.26 -335.87,339.14 -246.33,562.17 16.15,40.68 40.07,80.34 68.69,114.68 15.33,18.19 15.54,18.4 12.06,23.51 -17.99,27.6 -38.02,65.62 -48.45,91.58 -15.74,39.86 -16.35,67.26 -2.25,79.73 22.69,19.83 63.37,3.27 150.66,-61.12 l 30.05,-22.08 15.95,7.15 c 33.12,15.33 80.13,28.42 121.43,33.53 24.94,3.07 83.2,2.45 107.94,-1.02 39.04,-5.52 83.2,-18.2 116.93,-33.32 l 13.29,-5.93 34.75,25.35 c 55.2,40.48 82.79,56.42 108.96,62.96 31.48,8.18 50.09,-8.38 46.41,-40.68 -3.07,-26.98 -20.65,-69.51 -47.84,-115.71 -7.97,-13.29 -14.51,-24.94 -14.51,-25.55 0,-0.61 6.13,-8.18 13.49,-16.97 48.65,-56.82 82.38,-130.22 96.28,-209.94 5.31,-30.87 4.9,-106.1 -1.02,-137.99 C 908.33,325.32 862.95,242.12 793.44,177.32 727,115.38 639.1,75.1 548.74,65.29 530.34,63.25 475.15,62.63 463.29,64.27 Z m 108.14,78.29 c 120.62,25.55 217.72,107.12 262.49,220.99 17.79,45.18 22.9,74.62 22.9,129.81 0,36.59 -0.61,46.41 -4.7,66.03 -13.7,67.87 -43.54,126.13 -89.75,176.22 C 690.41,813.49 579.2,857.24 476.17,848.45 411.16,842.73 355.15,823.51 303.84,788.96 118.83,664.88 90.62,406.28 244.35,246.41 298.12,190.4 365.58,154.42 441.83,140.72 c 31.89,-5.72 98.33,-4.7 129.6,1.84 z"
       id="path8"
       style="fill:#808080;fill-opacity:1;stroke-width:0.1"
       inkscape:connector-curvature="0" /><path
       d="m 489.87,218.41 c -4.09,4.09 -4.09,6.75 -4.09,118.16 v 114.27 l -7.56,4.91 c -9.2,5.93 -16.15,15.74 -19.22,27.19 -5.93,22.08 10.22,47.43 33.32,52.13 12.47,2.66 25.35,-0.21 35.98,-7.77 5.93,-4.09 8.38,-4.09 100.17,-4.7 91.38,-0.61 94.24,-0.82 99.76,-4.91 9.81,-7.15 13.7,-14.31 13.7,-23.92 0,-11.24 -5.52,-21.46 -14.92,-26.98 -6.74,-3.88 -11.24,-4.09 -101.19,-5.11 -89.54,-1.02 -94.45,-1.23 -100.58,-5.11 l -6.75,-4.09 V 338.41 224.34 l -5.11,-4.91 c -6.34,-6.54 -17.59,-6.95 -23.51,-1.02 z"
       id="path10"
       style="fill:#808080;fill-opacity:1;stroke-width:0.1"
       inkscape:connector-curvature="0" /></g></g>
</svg>