<?xml version="1.0" encoding="UTF-8" standalone="no"?>
<!-- Svg Vector Icons : http://www.onlinewebfonts.com/icon -->

<svg
   xmlns:dc="http://purl.org/dc/elements/1.1/"
   xmlns:cc="http://creativecommons.org/ns#"
   xmlns:rdf="http://www.w3.org/1999/02/22-rdf-syntax-ns#"
   xmlns:svg="http://www.w3.org/2000/svg"
   xmlns="http://www.w3.org/2000/svg"
   xmlns:sodipodi="http://sodipodi.sourceforge.net/DTD/sodipodi-0.dtd"
   xmlns:inkscape="http://www.inkscape.org/namespaces/inkscape"
   version="1.1"
   x="0px"
   y="0px"
   viewBox="0 0 1000 1000"
   enable-background="new 0 0 1000 1000"
   xml:space="preserve"
   id="svg10"
   sodipodi:docname="bell.svg"
   inkscape:version="0.92.3 (2405546, 2018-03-11)"><defs
   id="defs14" /><sodipodi:namedview
   pagecolor="#ffffff"
   bordercolor="#666666"
   borderopacity="1"
   objecttolerance="10"
   gridtolerance="10"
   guidetolerance="10"
   inkscape:pageopacity="0"
   inkscape:pageshadow="2"
   inkscape:window-width="712"
   inkscape:window-height="480"
   id="namedview12"
   showgrid="false"
   inkscape:zoom="0.236"
   inkscape:cx="500"
   inkscape:cy="500"
   inkscape:window-x="116"
   inkscape:window-y="90"
   inkscape:window-maximized="0"
   inkscape:current-layer="g8" />
<metadata
   id="metadata2"> Svg Vector Icons : http://www.onlinewebfonts.com/icon <rdf:RDF><cc:Work
     rdf:about=""><dc:format>image/svg+xml</dc:format><dc:type
       rdf:resource="http://purl.org/dc/dcmitype/StillImage" /></cc:Work></rdf:RDF></metadata>
<g
   id="g8"><path
     d="M32.1,10L32.1,10L32.1,10z"
     id="path4" /><path
     d="M793.7,452.6c-118.5-255.1-180.1-352-373.8-347.9c-69,1.4-52.4-50-105-30.5c-52.6,19.4-7.4,48-61.2,92.1c-150.9,123.8-137,238.4-67,511.5c29.5,115-71.1,120.7-31.3,232.2c29,81.3,243.2,115.3,469.2,31.5c226-83.8,368.6-250.2,339.5-331.6C924.3,498.4,843.7,559.9,793.7,452.6L793.7,452.6z M600,872.8c-201.8,74.9-367.6,30.8-374.7,11.3c-12.1-33.7,65.1-146.4,295.9-232c230.7-85.6,359.5-53.9,372.9-16.2C902.1,658.1,801.9,797.8,600,872.8L600,872.8z M535.2,691.1C429.7,730.3,356.4,775,308.9,815.4c33.4,30.3,96,37.8,158.4,14.6c79.4-29.5,128.1-97.1,108.8-151c-0.2-0.7-0.6-1.2-0.8-1.9C562.3,681.3,548.9,686,535.2,691.1L535.2,691.1z"
     id="path6"
     style="fill:#808080;fill-opacity:1" /></g>
</svg>