<?xml version="1.0" encoding="UTF-8" standalone="no"?>
<svg
   xmlns:ooo="http://xml.openoffice.org/svg/export"
   xmlns:dc="http://purl.org/dc/elements/1.1/"
   xmlns:cc="http://creativecommons.org/ns#"
   xmlns:rdf="http://www.w3.org/1999/02/22-rdf-syntax-ns#"
   xmlns:svg="http://www.w3.org/2000/svg"
   xmlns="http://www.w3.org/2000/svg"
   style="fill-rule:evenodd;stroke-width:28.22200012;stroke-linejoin:round"
   id="svg74"
   xml:space="preserve"
   preserveAspectRatio="xMidYMid"
   viewBox="0 0 2540.0002 2540.0002"
   height="96"
   width="96"
   version="1.2"><metadata
   id="metadata78"><rdf:RDF><cc:Work
       rdf:about=""><dc:format>image/svg+xml</dc:format><dc:type
         rdf:resource="http://purl.org/dc/dcmitype/StillImage" /><dc:title></dc:title></cc:Work></rdf:RDF></metadata>
 <defs
   id="defs5"
   class="ClipPathGroup">
  <clipPath
   clipPathUnits="userSpaceOnUse"
   id="presentation_clip_path">
   <rect
   id="rect2"
   height="3387"
   width="3387"
   y="0"
   x="0" />
  </clipPath>
 </defs>
 <defs
   id="defs9"
   class="TextShapeIndex">
  <g
   id="g7"
   ooo:id-list="id3 id4 id5 id6"
   ooo:slide="id1" />
 </defs>
 <defs
   id="defs38"
   class="EmbeddedBulletChars">
  <g
   transform="matrix(4.8828125e-4,0,0,-4.8828125e-4,0,0)"
   id="bullet-char-template(57356)">
   <path
   id="path11"
   d="M 580,1141 1163,571 580,0 -4,571 Z" />
  </g>
  <g
   transform="matrix(4.8828125e-4,0,0,-4.8828125e-4,0,0)"
   id="bullet-char-template(57354)">
   <path
   id="path14"
   d="M 8,1128 H 1137 V 0 H 8 Z" />
  </g>
  <g
   transform="matrix(4.8828125e-4,0,0,-4.8828125e-4,0,0)"
   id="bullet-char-template(10146)">
   <path
   id="path17"
   d="M 174,0 602,739 174,1481 1456,739 Z M 1358,739 309,1346 659,739 Z" />
  </g>
  <g
   transform="matrix(4.8828125e-4,0,0,-4.8828125e-4,0,0)"
   id="bullet-char-template(10132)">
   <path
   id="path20"
   d="M 2015,739 1276,0 H 717 l 543,543 H 174 v 393 h 1086 l -543,545 h 557 z" />
  </g>
  <g
   transform="matrix(4.8828125e-4,0,0,-4.8828125e-4,0,0)"
   id="bullet-char-template(10007)">
   <path
   id="path23"
   d="m 0,-2 c -7,16 -16,29 -25,39 l 381,530 c -94,256 -141,385 -141,387 0,25 13,38 40,38 9,0 21,-2 34,-5 21,4 42,12 65,25 l 27,-13 111,-251 280,301 64,-25 24,25 c 21,-10 41,-24 62,-43 C 886,937 835,863 770,784 769,783 710,716 594,584 L 774,223 c 0,-27 -21,-55 -63,-84 l 16,-20 C 717,90 699,76 672,76 641,76 570,178 457,381 L 164,-76 c -22,-34 -53,-51 -92,-51 -42,0 -63,17 -64,51 -7,9 -10,24 -10,44 0,9 1,19 2,30 z" />
  </g>
  <g
   transform="matrix(4.8828125e-4,0,0,-4.8828125e-4,0,0)"
   id="bullet-char-template(10004)">
   <path
   id="path26"
   d="M 285,-33 C 182,-33 111,30 74,156 52,228 41,333 41,471 c 0,78 14,145 41,201 34,71 87,106 158,106 53,0 88,-31 106,-94 l 23,-176 c 8,-64 28,-97 59,-98 l 735,706 c 11,11 33,17 66,17 42,0 63,-15 63,-46 V 965 c 0,-36 -10,-64 -30,-84 L 442,47 C 390,-6 338,-33 285,-33 Z" />
  </g>
  <g
   transform="matrix(4.8828125e-4,0,0,-4.8828125e-4,0,0)"
   id="bullet-char-template(9679)">
   <path
   id="path29"
   d="M 813,0 C 632,0 489,54 383,161 276,268 223,411 223,592 c 0,181 53,324 160,431 106,107 249,161 430,161 179,0 323,-54 432,-161 108,-107 162,-251 162,-431 0,-180 -54,-324 -162,-431 C 1136,54 992,0 813,0 Z" />
  </g>
  <g
   transform="matrix(4.8828125e-4,0,0,-4.8828125e-4,0,0)"
   id="bullet-char-template(8226)">
   <path
   id="path32"
   d="m 346,457 c -73,0 -137,26 -191,78 -54,51 -81,114 -81,188 0,73 27,136 81,188 54,52 118,78 191,78 73,0 134,-26 185,-79 51,-51 77,-114 77,-187 0,-75 -25,-137 -76,-188 -50,-52 -112,-78 -186,-78 z" />
  </g>
  <g
   transform="matrix(4.8828125e-4,0,0,-4.8828125e-4,0,0)"
   id="bullet-char-template(8211)">
   <path
   id="path35"
   d="M -4,459 H 1135 V 606 H -4 Z" />
  </g>
 </defs>
 <defs
   id="defs40"
   class="TextEmbeddedBitmaps" />
 <g
   transform="matrix(0.72760422,0,0,0.80011461,33.07292,-54.189578)"
   id="g45">
  <g
   class="Master_Slide"
   id="id2">
   <g
   class="Background"
   id="bg-id2" />
   <g
   class="BackgroundObjects"
   id="bo-id2" />
  </g>
 </g>
 <g
   transform="matrix(0.72760422,0,0,0.80011461,33.07292,-54.189578)"
   id="g72"
   class="SlideGroup">
  <g
   id="g70">
   <g
   clip-path="url(#presentation_clip_path)"
   class="Slide"
   id="id1">
    <g
   id="g67"
   class="Page">
     <g
   id="g48"
   class="com.sun.star.drawing.PolyPolygonShape">
      <g
   id="id3" />
     </g>
     <g
   id="g65"
   class="Group">
      <g
   id="g53"
   class="com.sun.star.drawing.ClosedBezierShape">
       <g
   id="id4">
        <path
   style="fill:#808080;stroke:none"
   id="path50"
   d="m 1026,1940 h -77 c -42,0 -77,34 -77,77 v 872 c 0,34 -9,58 -15,68 H 500 c -6,-10 -15,-34 -15,-68 v -872 c 0,-43 -34,-77 -77,-77 h -86 c -37,0 -68,-30 -68,-68 v -727 c 0,-38 31,-68 68,-68 h 704 c 18,-56 58,-102 110,-128 -31,-16 -65,-26 -102,-26 h -21 c 66,-76 106,-176 106,-285 0,-241 -197,-438 -440,-438 -244,0 -441,197 -441,438 0,109 40,209 106,285 h -22 c -122,0 -222,100 -222,222 v 727 c 0,122 100,221 222,221 h 9 v 796 c 0,126 67,221 156,221 h 384 c 88,0 155,-95 155,-221 v -796 h 8 c 37,0 71,-9 101,-25 -51,-26 -91,-72 -109,-128 z M 679,353 C 837,353 966,481 966,638 966,796 837,924 679,924 520,924 392,796 392,638 392,481 520,353 679,353 Z" />
       </g>
      </g>
      <g
   id="g58"
   class="com.sun.star.drawing.ClosedBezierShape">
       <g
   id="id5">
        <path
   style="fill:#808080;stroke:none"
   id="path55"
   d="m 3078,923 h -22 c 66,-76 107,-176 107,-285 0,-241 -198,-438 -442,-438 -243,0 -440,197 -440,438 0,109 40,209 107,285 h -22 c -39,0 -75,11 -107,29 50,26 87,71 105,125 1,0 1,0 2,0 h 712 c 37,0 68,30 68,68 v 727 c 0,38 -31,68 -68,68 h -86 c -42,0 -77,34 -77,77 v 872 c 0,34 -9,58 -15,68 h -357 c -6,-10 -15,-34 -15,-68 v -872 c 0,-43 -34,-77 -77,-77 h -85 c -1,0 -1,0 -2,0 -18,54 -55,98 -105,125 32,18 68,28 107,28 h 8 v 796 c 0,126 67,221 156,221 h 384 c 88,0 155,-95 155,-221 v -796 h 9 c 122,0 222,-99 222,-221 v -727 c 0,-122 -100,-222 -222,-222 z m -357,0 c -158,0 -286,-127 -286,-285 0,-157 128,-285 286,-285 159,0 288,128 288,285 -1,158 -129,285 -288,285 z" />
       </g>
      </g>
      <g
   id="g63"
   class="com.sun.star.drawing.ClosedBezierShape">
       <g
   id="id6">
        <path
   style="fill:#808080;stroke:none"
   id="path60"
   d="m 2273,1872 v -727 c 0,-24 -4,-46 -11,-68 -18,-54 -56,-99 -105,-125 -32,-18 -67,-29 -106,-29 h -22 c 66,-76 107,-176 107,-285 0,-241 -198,-438 -441,-438 -243,0 -441,197 -441,438 0,109 40,209 107,285 h -22 c -37,0 -71,10 -101,26 -52,26 -91,72 -110,128 -7,21 -12,44 -12,68 v 727 c 0,24 5,47 12,68 19,56 58,102 110,128 30,16 64,25 101,25 h 8 v 796 c 0,126 67,221 156,221 h 384 c 88,0 155,-95 155,-221 v -796 h 9 c 39,0 74,-10 106,-28 49,-27 87,-71 105,-125 7,-22 11,-44 11,-68 z M 1695,353 c 158,0 287,128 287,285 0,158 -129,286 -287,286 -158,0 -287,-128 -287,-286 0,-157 129,-285 287,-285 z m 424,1519 c 0,37 -30,67 -66,68 -1,0 -2,0 -2,0 h -86 c -42,0 -77,34 -77,77 v 872 c 0,34 -9,58 -15,68 h -357 c -6,-10 -15,-34 -15,-68 v -872 c 0,-43 -34,-77 -77,-77 h -77 -8 c -38,0 -69,-30 -69,-68 v -727 c 0,-38 31,-68 69,-68 h 8 704 c 0,0 1,0 2,0 36,1 66,31 66,68 z" />
       </g>
      </g>
     </g>
    </g>
   </g>
  </g>
 </g>
</svg>