<?xml version="1.0" encoding="iso-8859-1"?>
<!-- Generator: Adobe Illustrator 19.1.0, SVG Export Plug-In . SVG Version: 6.00 Build 0)  -->
<svg xmlns="http://www.w3.org/2000/svg" xmlns:xlink="http://www.w3.org/1999/xlink" version="1.1" id="Capa_1" x="0px" y="0px" viewBox="0 0 488.5 488.5" style="enable-background:new 0 0 488.5 488.5;" xml:space="preserve" width="512px" height="512px">
<g>
	<g>
		<path d="M364.5,232.45c5.4,4.6,13.4,4.4,18.5-0.7c4.9-4.9,5.3-12.5,1.2-17.8l0,0l-0.2-0.2c-0.1-0.2-0.3-0.4-0.4-0.5l-33.6-40    c-1.4-1.7-2.3-3.8-2.4-6.1l-4.9-75.3l0,0c-0.6-7-6.4-12.4-13.6-12.4c-7,0-12.7,5.2-13.5,12l0,0v0.1c0,0.3,0,0.6-0.1,0.9l-5.4,82.7    c-0.1,0.5-0.1,1.1-0.1,1.6v0.2l0,0c0,0.1,0,0.2,0,0.3c0,0.2,0,0.3,0,0.4c-0.1,5,1.8,10,5.6,13.8c0.8,0.8,1.6,1.5,2.5,2.1    L364.5,232.45L364.5,232.45z" fill="#FFFFFF"/>
		<path d="M330.3,16.45c-69.4,0-128.4,44.9-149.7,107.1c13.8,1.6,27.2,4.6,40.1,9.1c16.9-44.1,59.7-75.5,109.6-75.5    c64.7,0,117.4,52.7,117.4,117.4c0,58.6-43.1,107.2-99.3,116c0.9,7.6,1.4,15.4,1.4,23.2c0,6-0.3,11.9-0.8,17.8    c78.4-9.3,139.5-76.1,139.5-157C488.4,87.35,417.5,16.45,330.3,16.45z" fill="#FFFFFF"/>
		<path d="M303.1,290.45l-20.4-0.1c-3.2-16.7-9.7-32.9-19.6-47.5l14.5-14.4c5.2-5.2,5.3-13.7,0.1-18.9l-14.6-14.6    c-5.2-5.2-13.7-5.3-18.9-0.1l-14.5,14.4c-14.6-10-30.7-16.6-47.4-19.9l0.1-20.4c0-7.4-5.9-13.4-13.3-13.4l-20.6-0.1    c-7.4,0-13.4,5.9-13.4,13.3l-0.1,20.3c-16.8,3.1-33.1,9.6-47.8,19.5L73,194.35c-5.2-5.2-13.7-5.3-18.9,0l-14.6,14.6    c-5.2,5.2-5.3,13.7-0.1,18.9l14,14.1c-10.1,14.6-16.8,31-20.1,47.8l-19.8-0.1c-7.4,0-13.4,5.9-13.4,13.3L0,323.55    c0,7.4,5.9,13.4,13.3,13.4l19.7,0.1c3.1,16.9,9.7,33.4,19.7,48.1l-13.9,13.8c-5.2,5.2-5.3,13.7-0.1,18.9l14.6,14.6    c5.2,5.2,13.7,5.3,18.9,0l14.1-13.6c14.7,10.1,31.1,16.8,48,20l-0.1,19.7c0,7.4,5.9,13.4,13.3,13.4l20.6,0.1    c7.4,0,13.4-5.9,13.4-13.3l0.1-19.8c16.9-3.2,33.2-9.8,47.9-19.9l14,14.1c5.2,5.2,13.7,5.3,18.9,0.1l14.6-14.6    c5.2-5.2,5.3-13.7,0.1-18.9l-14.2-14.2c10-14.6,16.6-30.9,19.7-47.7l20.3,0.1c7.4,0,13.4-5.9,13.4-13.3l0.1-20.6    C316.5,296.45,310.5,290.45,303.1,290.45z M206.9,362.55c-27,26.8-70.6,26.7-97.4-0.3s-26.7-70.6,0.3-97.4s70.6-26.7,97.4,0.3    C234,292.15,233.8,335.75,206.9,362.55z" fill="#FFFFFF"/>
	</g>
</g>
<g>
</g>
<g>
</g>
<g>
</g>
<g>
</g>
<g>
</g>
<g>
</g>
<g>
</g>
<g>
</g>
<g>
</g>
<g>
</g>
<g>
</g>
<g>
</g>
<g>
</g>
<g>
</g>
<g>
</g>
</svg>
