<?xml version="1.0" encoding="UTF-8"?>

<svg version="1.2" baseProfile="tiny" width="180.62mm" height="180.62mm" viewBox="0 0 18062 18062" preserveAspectRatio="xMidYMid" fill-rule="evenodd" stroke-width="28.222" stroke-linejoin="round" xmlns="http://www.w3.org/2000/svg" xmlns:ooo="http://xml.openoffice.org/svg/export" xmlns:xlink="http://www.w3.org/1999/xlink" xml:space="preserve">
 <defs class="ClipPathGroup">
  <clipPath id="presentation_clip_path" clipPathUnits="userSpaceOnUse">
   <rect x="0" y="0" width="18062" height="18062"/>
  </clipPath>
 </defs>
 <defs class="TextShapeIndex">
  <g ooo:slide="id1" ooo:id-list="id3"/>
 </defs>
 <defs class="EmbeddedBulletChars">
  <g id="bullet-char-template(57356)" transform="scale(0.00048828125,-0.00048828125)">
   <path d="M 580,1141 L 1163,571 580,0 -4,571 580,1141 Z"/>
  </g>
  <g id="bullet-char-template(57354)" transform="scale(0.00048828125,-0.00048828125)">
   <path d="M 8,1128 L 1137,1128 1137,0 8,0 8,1128 Z"/>
  </g>
  <g id="bullet-char-template(10146)" transform="scale(0.00048828125,-0.00048828125)">
   <path d="M 174,0 L 602,739 174,1481 1456,739 174,0 Z M 1358,739 L 309,1346 659,739 1358,739 Z"/>
  </g>
  <g id="bullet-char-template(10132)" transform="scale(0.00048828125,-0.00048828125)">
   <path d="M 2015,739 L 1276,0 717,0 1260,543 174,543 174,936 1260,936 717,1481 1274,1481 2015,739 Z"/>
  </g>
  <g id="bullet-char-template(10007)" transform="scale(0.00048828125,-0.00048828125)">
   <path d="M 0,-2 C -7,14 -16,27 -25,37 L 356,567 C 262,823 215,952 215,954 215,979 228,992 255,992 264,992 276,990 289,987 310,991 331,999 354,1012 L 381,999 492,748 772,1049 836,1024 860,1049 C 881,1039 901,1025 922,1006 886,937 835,863 770,784 769,783 710,716 594,584 L 774,223 C 774,196 753,168 711,139 L 727,119 C 717,90 699,76 672,76 641,76 570,178 457,381 L 164,-76 C 142,-110 111,-127 72,-127 30,-127 9,-110 8,-76 1,-67 -2,-52 -2,-32 -2,-23 -1,-13 0,-2 Z"/>
  </g>
  <g id="bullet-char-template(10004)" transform="scale(0.00048828125,-0.00048828125)">
   <path d="M 285,-33 C 182,-33 111,30 74,156 52,228 41,333 41,471 41,549 55,616 82,672 116,743 169,778 240,778 293,778 328,747 346,684 L 369,508 C 377,444 397,411 428,410 L 1163,1116 C 1174,1127 1196,1133 1229,1133 1271,1133 1292,1118 1292,1087 L 1292,965 C 1292,929 1282,901 1262,881 L 442,47 C 390,-6 338,-33 285,-33 Z"/>
  </g>
  <g id="bullet-char-template(9679)" transform="scale(0.00048828125,-0.00048828125)">
   <path d="M 813,0 C 632,0 489,54 383,161 276,268 223,411 223,592 223,773 276,916 383,1023 489,1130 632,1184 813,1184 992,1184 1136,1130 1245,1023 1353,916 1407,772 1407,592 1407,412 1353,268 1245,161 1136,54 992,0 813,0 Z"/>
  </g>
  <g id="bullet-char-template(8226)" transform="scale(0.00048828125,-0.00048828125)">
   <path d="M 346,457 C 273,457 209,483 155,535 101,586 74,649 74,723 74,796 101,859 155,911 209,963 273,989 346,989 419,989 480,963 531,910 582,859 608,796 608,723 608,648 583,586 532,535 482,483 420,457 346,457 Z"/>
  </g>
  <g id="bullet-char-template(8211)" transform="scale(0.00048828125,-0.00048828125)">
   <path d="M -4,459 L 1135,459 1135,606 -4,606 -4,459 Z"/>
  </g>
 </defs>
 <defs class="TextEmbeddedBitmaps"/>
 <g>
  <g id="id2" class="Master_Slide">
   <g id="bg-id2" class="Background"/>
   <g id="bo-id2" class="BackgroundObjects"/>
  </g>
 </g>
 <g class="SlideGroup">
  <g>
   <g id="id1" class="Slide" clip-path="url(#presentation_clip_path)">
    <g class="Page">
     <g class="com.sun.star.drawing.ClosedBezierShape">
      <g id="id3">
       <path fill="rgb(128,128,128)" stroke="none" d="M 552,9708 L 2511,9636 C 2742,9936 3010,10209 3308,10453 L 3179,12414 C 3394,12536 3615,12649 3847,12749 4079,12850 4314,12932 4550,13006 L 5888,11566 C 6270,11615 6652,11621 7028,11584 L 8320,13058 C 8803,12927 9268,12742 9708,12507 L 9637,10546 C 9936,10315 10209,10048 10453,9749 L 12414,9878 C 12536,9664 12649,9443 12749,9210 12850,8979 12932,8744 13006,8508 L 11566,7170 C 11615,6787 11621,6406 11584,6030 L 13058,4737 C 12927,4255 12742,3790 12507,3350 L 10546,3421 C 10315,3122 10048,2848 9749,2605 L 9878,644 C 9664,521 9443,409 9210,308 8978,209 8744,125 8508,53 L 7171,1493 C 6788,1444 6407,1437 6031,1474 L 4737,0 C 4255,132 3790,317 3350,552 L 3421,2511 C 3121,2742 2848,3009 2604,3307 L 644,3179 C 521,3394 409,3615 308,3847 209,4079 125,4314 53,4550 L 1492,5888 C 1444,6270 1437,6652 1474,7028 L 0,8321 C 132,8801 317,9268 552,9708 Z M 7870,3419 C 9587,4159 10380,6152 9639,7870 8898,9588 6906,10380 5187,9639 3469,8898 2678,6906 3419,5187 4159,3469 6152,2678 7870,3419 Z M 4835,6529 C 4835,7464 5593,8222 6529,8222 7464,8222 8222,7464 8222,6529 8222,5593 7464,4835 6529,4835 5593,4835 4835,5593 4835,6529 Z M 16958,13292 L 16491,13126 16704,12677 17195,11644 C 17014,11417 16806,11210 16579,11028 L 15546,11519 15096,11732 14931,11265 14546,10184 C 14404,10169 14259,10161 14112,10161 13965,10161 13820,10169 13676,10185 L 13292,11266 13126,11733 12677,11520 11644,11029 C 11417,11210 11210,11417 11028,11645 L 11519,12678 11732,13127 11265,13293 10184,13677 C 10169,13820 10161,13965 10161,14112 10161,14259 10169,14404 10185,14546 L 11266,14930 11733,15096 11520,15546 11029,16579 C 11210,16805 11417,17013 11645,17195 L 12678,16704 13127,16490 13293,16958 13677,18038 C 13820,18054 13965,18063 14112,18063 14259,18063 14404,18054 14547,18038 L 14932,16958 15098,16491 15547,16704 16580,17195 C 16806,17014 17014,16806 17196,16579 L 16705,15546 16492,15096 16959,14931 18040,14546 C 18054,14404 18063,14259 18063,14112 18063,13965 18054,13820 18038,13676 L 16958,13292 Z M 14112,14959 C 13644,14959 13265,14579 13265,14112 13265,13644 13644,13265 14112,13265 14579,13265 14959,13644 14959,14112 14959,14579 14579,14959 14112,14959 Z"/>
      </g>
     </g>
    </g>
   </g>
  </g>
 </g>
</svg>