<?xml version="1.0" encoding="UTF-8" standalone="no"?>
<!-- Created with Inkscape (http://www.inkscape.org/) -->
<svg id="svg3140" xmlns:rdf="http://www.w3.org/1999/02/22-rdf-syntax-ns#" xmlns="http://www.w3.org/2000/svg" height="90" width="90" version="1.1" xmlns:cc="http://creativecommons.org/ns#" xmlns:dc="http://purl.org/dc/elements/1.1/">
 <metadata id="metadata3145">
  <rdf:RDF>
   <cc:Work rdf:about="">
    <dc:format>image/svg+xml</dc:format>
    <dc:type rdf:resource="http://purl.org/dc/dcmitype/StillImage"/>
    <dc:title/>
   </cc:Work>
  </rdf:RDF>
 </metadata>
 <g id="layer1" transform="translate(0 -962.36)">
  <rect id="rect4198" style="color:#000000;fill:none" height="90" width="90" y="962.36" x="0"/>
  <g id="g4978" transform="translate(-60 548)">
   <path id="path4385" style="block-progression:tb;text-indent:0;color:#000000;text-transform:none;fill:#808080" d="m101 414.36c-6 0-8 0-8 5v7h3v-6h18v6h3v-7c0-5-2-5-8-5z"/>
   <path id="rect2988" style="color:#000000;fill:#808080" d="m12 33v39c0 18 3 18 30 18h6c27 0 30-0.00001 30-18v-39h-12v36c0 3-1 3-3 3-2 0.00002-3 0.00002-3-3v-36h-12v36c0 3-1 3-3 3-2 0.00002-3 0.00002-3-3v-36h-12v36c0 3-1 3-3 3-2 0.000015-2.9167-0.0011-3-3v-36z" transform="translate(60 414.36)"/>
   <path id="path3783" style="color:#000000;fill:#808080" d="m99 423.36c-27 0-30 0.00001-30 18h72c0-18-3-18-30-18z"/>
   <rect id="rect2989" style="color:#000000;fill:none" transform="translate(60 414.36)" height="90" width="90" y=".000015259" x="0"/>
  </g>
 </g>
</svg>
