<?xml version="1.0" encoding="UTF-8" standalone="no"?>
<!-- Generator: Adobe Illustrator 17.0.1, SVG Export Plug-In . SVG Version: 6.00 Build 0)  -->

<svg
   xmlns:dc="http://purl.org/dc/elements/1.1/"
   xmlns:cc="http://creativecommons.org/ns#"
   xmlns:rdf="http://www.w3.org/1999/02/22-rdf-syntax-ns#"
   xmlns:svg="http://www.w3.org/2000/svg"
   xmlns="http://www.w3.org/2000/svg"
   xmlns:sodipodi="http://sodipodi.sourceforge.net/DTD/sodipodi-0.dtd"
   xmlns:inkscape="http://www.inkscape.org/namespaces/inkscape"
   version="1.1"
   x="0px"
   y="0px"
   width="86px"
   height="86px"
   viewBox="0 0 86 86"
   enable-background="new 0 0 86 86"
   xml:space="preserve"
   id="svg21"
   sodipodi:docname="noson.svg"
   inkscape:version="0.92.3 (2405546, 2018-03-11)"
   inkscape:export-filename="/home/jlb/src/janbar/SFOS/noson-app-sfos/gui/sfos/images/noson.png"
   inkscape:export-xdpi="96"
   inkscape:export-ydpi="96"><metadata
   id="metadata27"><rdf:RDF><cc:Work
       rdf:about=""><dc:format>image/svg+xml</dc:format><dc:type
         rdf:resource="http://purl.org/dc/dcmitype/StillImage" /><dc:title></dc:title></cc:Work></rdf:RDF></metadata><defs
   id="defs25"><linearGradient
     gradientTransform="translate(13.59265,2.20339)"
     id="SVGID_1_-3"
     gradientUnits="userSpaceOnUse"
     x1="0.71689999"
     y1="85.283096"
     x2="85.283096"
     y2="0.71689999"><stop
       offset="0"
       style="stop-color:#EB424A"
       id="stop3-6" /><stop
       offset="1"
       style="stop-color:#FF7500"
       id="stop5-7" /></linearGradient><linearGradient
     gradientTransform="translate(10,-9)"
     id="SVGID_1_-35"
     gradientUnits="userSpaceOnUse"
     x1="0.71689999"
     y1="85.283096"
     x2="85.283096"
     y2="0.71689999"><stop
       offset="0"
       style="stop-color:#EB424A"
       id="stop3-62" /><stop
       offset="1"
       style="stop-color:#FF7500"
       id="stop5-9" /></linearGradient><linearGradient
     gradientTransform="translate(102,-0.067482)"
     id="SVGID_1_-2"
     gradientUnits="userSpaceOnUse"
     x1="0.71689999"
     y1="85.283096"
     x2="85.283096"
     y2="0.71689999"><stop
       offset="0"
       style="stop-color:#EB424A"
       id="stop3-7" /><stop
       offset="1"
       style="stop-color:#FF7500"
       id="stop5-0" /></linearGradient><linearGradient
     gradientTransform="translate(-0.00340762,0.01152333)"
     id="SVGID_1_-26"
     gradientUnits="userSpaceOnUse"
     x1="0.71689999"
     y1="85.283096"
     x2="85.283096"
     y2="0.71689999"><stop
       offset="0"
       style="stop-color:#EB424A"
       id="stop3-1" /><stop
       offset="1"
       style="stop-color:#FF7500"
       id="stop5-8" /></linearGradient></defs><sodipodi:namedview
   pagecolor="#ffffff"
   bordercolor="#666666"
   borderopacity="1"
   objecttolerance="10"
   gridtolerance="10"
   guidetolerance="10"
   inkscape:pageopacity="0"
   inkscape:pageshadow="2"
   inkscape:window-width="1693"
   inkscape:window-height="1001"
   id="namedview23"
   showgrid="true"
   inkscape:zoom="7.7617302"
   inkscape:cx="28.920542"
   inkscape:cy="46.633142"
   inkscape:window-x="479"
   inkscape:window-y="254"
   inkscape:window-maximized="0"
   inkscape:current-layer="Layer_1"><inkscape:grid
     type="xygrid"
     id="grid57" /></sodipodi:namedview>
<g
   id="Layer_2"
   display="none">
</g>
<g
   id="Layer_1">
	<linearGradient
   id="SVGID_1_"
   gradientUnits="userSpaceOnUse"
   x1="0.7169"
   y1="85.2831"
   x2="85.2831"
   y2="0.7169"
   gradientTransform="rotate(-90,43,43)">
		<stop
   offset="0"
   style="stop-color:#EB424A"
   id="stop3" />
		<stop
   offset="1"
   style="stop-color:#FF7500"
   id="stop5" />
	</linearGradient>
	<path
   d="M 0.3,1.723 V 43 c 0,23.583 19.118,42.7 42.7,42.7 h 41.277 c 0.786,0 1.423,-0.637 1.423,-1.423 V 43 C 85.7,19.417 66.582,0.3 43,0.3 H 1.723 C 0.937,0.3 0.3,0.937 0.3,1.723 Z"
   id="path8"
   style="fill:url(#SVGID_1_)"
   inkscape:connector-curvature="0" />
	
	
	
	
<g
   transform="matrix(0.02514347,0,0,0.02514347,37.073418,47.847395)"
   id="id7"><rect
     class="BoundingBox"
     x="300"
     y="300"
     width="3604"
     height="3604"
     id="rect69"
     style="fill:none;stroke:none" /></g><g
   transform="matrix(0.0238863,0,0,0.0238863,69.612444,-13.899264)"
   class="com.sun.star.drawing.ClosedBezierShape"
   id="g74"
   inkscape:transform-center-x="-1.4172098"><g
     id="id7-3"
     transform="matrix(0.84731553,0,0,0.84731553,-84.035376,641.73284)"
     inkscape:transform-center-x="-4.8958127"
     inkscape:transform-center-y="-2.4479078"><rect
       class="BoundingBox"
       x="300"
       y="300"
       width="3604"
       height="3604"
       id="rect69-6"
       style="fill:none;stroke:none" /><path
       d="m -1216.892,335.56097 c 969.94997,0 1710.94997,740.05003 1710.94997,1709.05003 0,969.95 -741,1710.95 -1710.94997,1710.95 -969,0 -1709.05,-741 -1709.05,-1710.95 0,-969 740.05,-1709.05003 1709.05,-1709.05003 z"
       id="path71"
       inkscape:connector-curvature="0"
       style="fill:#4c4c4c;stroke:none;stroke-width:0.94999999"
       sodipodi:nodetypes="sssss" /></g></g><g
   class="com.sun.star.drawing.ClosedBezierShape"
   id="g86"
   transform="matrix(0.02023923,0,0,0.02023923,-58.176546,-9.763151)"><g
     id="id9"><rect
       class="BoundingBox"
       x="900"
       y="900"
       width="2403"
       height="2403"
       id="rect81"
       style="fill:none;stroke:none" /><path
       d="m 4992.3819,1454.8161 c 646.95,0 1140.95,494 1140.95,1140 0,646.95 -494,1140.95 -1140.95,1140.95 -646,0 -1140,-494 -1140,-1140.95 0,-310.0004 113.7591,-584.9979 303.484,-787.1993 205.6369,-219.1598 500.5163,-352.8007 836.516,-352.8007 z"
       id="path83"
       inkscape:connector-curvature="0"
       style="fill:#808080;stroke:none;stroke-width:0.94999999"
       sodipodi:nodetypes="ssssss" /></g></g><g
   class="com.sun.star.drawing.ClosedBezierShape"
   id="g98"
   transform="matrix(0.02023923,0,0,0.02023923,-57.511315,-19.909249)"
   style="image-rendering:auto"><g
     id="id11"><rect
       class="BoundingBox"
       x="1500"
       y="1500"
       width="1203"
       height="1203"
       id="rect93"
       style="fill:none;stroke:none" /><path
       d="m 4956.2604,2526.5317 c 323.95,0 570.95,247 570.95,570 0,323.95 -247,570.95 -570.95,570.95 -323,0 -570,-247 -570,-570.95 0,-323 247,-570 570,-570 z"
       id="path95"
       inkscape:connector-curvature="0"
       style="fill:#333333;stroke:none;stroke-width:0.94999999"
       sodipodi:nodetypes="sssss" /></g></g></g>
</svg>