<?xml version="1.0" encoding="UTF-8" standalone="no"?>
<!-- Generator: Adobe Illustrator 17.0.1, SVG Export Plug-In . SVG Version: 6.00 Build 0)  -->

<svg
   xmlns:dc="http://purl.org/dc/elements/1.1/"
   xmlns:cc="http://creativecommons.org/ns#"
   xmlns:rdf="http://www.w3.org/1999/02/22-rdf-syntax-ns#"
   xmlns:svg="http://www.w3.org/2000/svg"
   xmlns="http://www.w3.org/2000/svg"
   xmlns:sodipodi="http://sodipodi.sourceforge.net/DTD/sodipodi-0.dtd"
   xmlns:inkscape="http://www.inkscape.org/namespaces/inkscape"
   version="1.1"
   id="Layer_1"
   x="0px"
   y="0px"
   width="64px"
   height="64px"
   viewBox="0 0 64 64"
   style="enable-background:new 0 0 64 64;"
   xml:space="preserve"
   sodipodi:docname="icon-m-grip.svg"
   inkscape:version="0.92.3 (2405546, 2018-03-11)"><metadata
   id="metadata17"><rdf:RDF><cc:Work
       rdf:about=""><dc:format>image/svg+xml</dc:format><dc:type
         rdf:resource="http://purl.org/dc/dcmitype/StillImage" /><dc:title></dc:title></cc:Work></rdf:RDF></metadata><defs
   id="defs15"><clipPath
     id="presentation_clip_path"
     clipPathUnits="userSpaceOnUse"><rect
       x="0"
       y="0"
       width="3387"
       height="3387"
       id="rect2" /></clipPath></defs><sodipodi:namedview
   pagecolor="#ffffff"
   bordercolor="#666666"
   borderopacity="1"
   objecttolerance="10"
   gridtolerance="10"
   guidetolerance="10"
   inkscape:pageopacity="0"
   inkscape:pageshadow="2"
   inkscape:window-width="1071"
   inkscape:window-height="679"
   id="namedview13"
   showgrid="false"
   inkscape:zoom="3.6875"
   inkscape:cx="32"
   inkscape:cy="32"
   inkscape:window-x="624"
   inkscape:window-y="236"
   inkscape:window-maximized="0"
   inkscape:current-layer="g205" />

<g
   transform="matrix(0.02210588,0,0,0.02210588,-5.201854,-5.1796181)"
   class="SlideGroup"
   id="g205"
   style="fill:#ffffff;fill-opacity:1"><g
     style="fill:#ffffff;fill-opacity:1"
     id="g48"
     class="com.sun.star.drawing.PolyPolygonShape"><g
       style="fill:#ffffff;fill-opacity:1"
       id="id3" /></g><g
     style="fill:#ffffff;fill-opacity:1;stroke:#fffff6;stroke-opacity:1;opacity:0.6"
     id="g53"
     class="com.sun.star.drawing.ClosedBezierShape"><g
       style="fill:#ffffff;fill-opacity:1;stroke:#fffff6;stroke-opacity:1"
       id="id4"><path
         id="path50"
         d="m 2254,2606 c 1,1 2,1 2,2 1,1 2,3 3,4 z"
         inkscape:connector-curvature="0"
         style="fill:#ffffff;fill-opacity:1;stroke:#fffff6;stroke-opacity:1" /></g></g><g
     style="fill:#ffffff;fill-opacity:1;stroke:#fffff6;stroke-opacity:1;opacity:0.6"
     id="g58"
     class="com.sun.star.drawing.ClosedBezierShape"><g
       style="fill:#ffffff;fill-opacity:1;stroke:#fffff6;stroke-opacity:1"
       id="id5"><path
         id="path55"
         d="m 532,2607 -5,6 c 1,-1 1,-3 2,-4 1,-1 2,-1 3,-2 z"
         inkscape:connector-curvature="0"
         style="fill:#ffffff;fill-opacity:1;stroke:#fffff6;stroke-opacity:1" /></g></g><g
     style="fill:#ffffff;fill-opacity:1;stroke:#fffff6;stroke-opacity:1;opacity:0.6"
     id="g65"
     class="com.sun.star.drawing.ClosedBezierShape"><g
       style="fill:#ffffff;fill-opacity:1;stroke:#fffff6;stroke-opacity:1"
       id="id6"><path
         id="path60"
         d="m 765,423 c -78,0 -141,63 -141,141 0,78 63,141 141,141 78,0 142,-63 142,-141 0,-78 -64,-141 -142,-141 z"
         inkscape:connector-curvature="0"
         style="fill:#ffffff;fill-opacity:1;stroke:#fffff6;stroke-opacity:1" /><path
         id="path62"
         d="m 765,423 c -78,0 -141,63 -141,141 0,78 63,141 141,141 78,0 142,-63 142,-141 0,-78 -64,-141 -142,-141 z"
         inkscape:connector-curvature="0"
         style="fill:#ffffff;fill-opacity:1;stroke:#fffff6;stroke-width:53;stroke-linejoin:round;stroke-opacity:1" /></g></g><g
     style="fill:#ffffff;fill-opacity:1;stroke:#fffff6;stroke-opacity:1;opacity:0.6"
     id="g72"
     class="com.sun.star.drawing.ClosedBezierShape"><g
       style="fill:#ffffff;fill-opacity:1;stroke:#fffff6;stroke-opacity:1"
       id="id7"><path
         id="path67"
         d="m 1394,423 c -78,0 -142,63 -142,141 0,78 64,141 142,141 78,0 141,-63 141,-141 0,-78 -63,-141 -141,-141 z"
         inkscape:connector-curvature="0"
         style="fill:#ffffff;fill-opacity:1;stroke:#fffff6;stroke-opacity:1" /><path
         id="path69"
         d="m 1394,423 c -78,0 -142,63 -142,141 0,78 64,141 142,141 78,0 141,-63 141,-141 0,-78 -63,-141 -141,-141 z"
         inkscape:connector-curvature="0"
         style="fill:#ffffff;fill-opacity:1;stroke:#fffff6;stroke-width:53;stroke-linejoin:round;stroke-opacity:1" /></g></g><g
     style="fill:#ffffff;fill-opacity:1;stroke:#fffff6;stroke-opacity:1;opacity:0.6"
     id="g79"
     class="com.sun.star.drawing.ClosedBezierShape"><g
       style="fill:#ffffff;fill-opacity:1;stroke:#fffff6;stroke-opacity:1"
       id="id8"><path
         id="path74"
         d="m 2036,423 c -78,0 -141,63 -141,141 0,78 63,141 141,141 78,0 141,-63 141,-141 0,-78 -63,-141 -141,-141 z"
         inkscape:connector-curvature="0"
         style="fill:#ffffff;fill-opacity:1;stroke:#fffff6;stroke-opacity:1" /><path
         id="path76"
         d="m 2036,423 c -78,0 -141,63 -141,141 0,78 63,141 141,141 78,0 141,-63 141,-141 0,-78 -63,-141 -141,-141 z"
         inkscape:connector-curvature="0"
         style="fill:#ffffff;fill-opacity:1;stroke:#fffff6;stroke-width:53;stroke-linejoin:round;stroke-opacity:1" /></g></g><g
     style="fill:#ffffff;fill-opacity:1;stroke:#fffff6;stroke-opacity:1;opacity:0.6"
     id="g86"
     class="com.sun.star.drawing.ClosedBezierShape"><g
       style="fill:#ffffff;fill-opacity:1;stroke:#fffff6;stroke-opacity:1"
       id="id9"><path
         id="path81"
         d="m 2664,423 c -78,0 -141,63 -141,141 0,78 63,141 141,141 78,0 141,-63 141,-141 0,-78 -63,-141 -141,-141 z"
         inkscape:connector-curvature="0"
         style="fill:#ffffff;fill-opacity:1;stroke:#fffff6;stroke-opacity:1" /><path
         id="path83"
         d="m 2664,423 c -78,0 -141,63 -141,141 0,78 63,141 141,141 78,0 141,-63 141,-141 0,-78 -63,-141 -141,-141 z"
         inkscape:connector-curvature="0"
         style="fill:#ffffff;fill-opacity:1;stroke:#fffff6;stroke-width:53;stroke-linejoin:round;stroke-opacity:1" /></g></g><g
     style="fill:#ffffff;fill-opacity:1;stroke:#fffff6;stroke-opacity:1;opacity:0.6"
     id="g93"
     class="com.sun.star.drawing.ClosedBezierShape"><g
       style="fill:#ffffff;fill-opacity:1;stroke:#fffff6;stroke-opacity:1"
       id="id10"><path
         id="path88"
         d="m 765,988 c -78,0 -141,63 -141,141 0,78 63,141 141,141 78,0 142,-63 142,-141 0,-78 -64,-141 -142,-141 z"
         inkscape:connector-curvature="0"
         style="fill:#ffffff;fill-opacity:1;stroke:#fffff6;stroke-opacity:1" /><path
         id="path90"
         d="m 765,988 c -78,0 -141,63 -141,141 0,78 63,141 141,141 78,0 142,-63 142,-141 0,-78 -64,-141 -142,-141 z"
         inkscape:connector-curvature="0"
         style="fill:#ffffff;fill-opacity:1;stroke:#fffff6;stroke-width:53;stroke-linejoin:round;stroke-opacity:1" /></g></g><g
     style="fill:#ffffff;fill-opacity:1;stroke:#fffff6;stroke-opacity:1;opacity:0.6"
     id="g100"
     class="com.sun.star.drawing.ClosedBezierShape"><g
       style="fill:#ffffff;fill-opacity:1;stroke:#fffff6;stroke-opacity:1"
       id="id11"><path
         id="path95"
         d="m 1394,988 c -78,0 -142,63 -142,141 0,78 64,141 142,141 78,0 141,-63 141,-141 0,-78 -63,-141 -141,-141 z"
         inkscape:connector-curvature="0"
         style="fill:#ffffff;fill-opacity:1;stroke:#fffff6;stroke-opacity:1" /><path
         id="path97"
         d="m 1394,988 c -78,0 -142,63 -142,141 0,78 64,141 142,141 78,0 141,-63 141,-141 0,-78 -63,-141 -141,-141 z"
         inkscape:connector-curvature="0"
         style="fill:#ffffff;fill-opacity:1;stroke:#fffff6;stroke-width:53;stroke-linejoin:round;stroke-opacity:1" /></g></g><g
     style="fill:#ffffff;fill-opacity:1;stroke:#fffff6;stroke-opacity:1;opacity:0.6"
     id="g107"
     class="com.sun.star.drawing.ClosedBezierShape"><g
       style="fill:#ffffff;fill-opacity:1;stroke:#fffff6;stroke-opacity:1"
       id="id12"><path
         id="path102"
         d="m 2036,988 c -78,0 -141,63 -141,141 0,78 63,141 141,141 78,0 141,-63 141,-141 0,-78 -63,-141 -141,-141 z"
         inkscape:connector-curvature="0"
         style="fill:#ffffff;fill-opacity:1;stroke:#fffff6;stroke-opacity:1" /><path
         id="path104"
         d="m 2036,988 c -78,0 -141,63 -141,141 0,78 63,141 141,141 78,0 141,-63 141,-141 0,-78 -63,-141 -141,-141 z"
         inkscape:connector-curvature="0"
         style="fill:#ffffff;fill-opacity:1;stroke:#fffff6;stroke-width:53;stroke-linejoin:round;stroke-opacity:1" /></g></g><g
     style="fill:#ffffff;fill-opacity:1;stroke:#fffff6;stroke-opacity:1;opacity:0.6"
     id="g114"
     class="com.sun.star.drawing.ClosedBezierShape"><g
       style="fill:#ffffff;fill-opacity:1;stroke:#fffff6;stroke-opacity:1"
       id="id13"><path
         id="path109"
         d="m 2664,988 c -78,0 -141,63 -141,141 0,78 63,141 141,141 78,0 141,-63 141,-141 0,-78 -63,-141 -141,-141 z"
         inkscape:connector-curvature="0"
         style="fill:#ffffff;fill-opacity:1;stroke:#fffff6;stroke-opacity:1" /><path
         id="path111"
         d="m 2664,988 c -78,0 -141,63 -141,141 0,78 63,141 141,141 78,0 141,-63 141,-141 0,-78 -63,-141 -141,-141 z"
         inkscape:connector-curvature="0"
         style="fill:#ffffff;fill-opacity:1;stroke:#fffff6;stroke-width:53;stroke-linejoin:round;stroke-opacity:1" /></g></g><g
     style="fill:#ffffff;fill-opacity:1;stroke:#fffff6;stroke-opacity:1;opacity:0.6"
     id="g121"
     class="com.sun.star.drawing.ClosedBezierShape"><g
       style="fill:#ffffff;fill-opacity:1;stroke:#fffff6;stroke-opacity:1"
       id="id14"><path
         id="path116"
         d="m 765,1552 c -78,0 -141,64 -141,141 0,78 63,142 141,142 78,0 142,-64 142,-142 0,-77 -64,-141 -142,-141 z"
         inkscape:connector-curvature="0"
         style="fill:#ffffff;fill-opacity:1;stroke:#fffff6;stroke-opacity:1" /><path
         id="path118"
         d="m 765,1552 c -78,0 -141,64 -141,141 0,78 63,142 141,142 78,0 142,-64 142,-142 0,-77 -64,-141 -142,-141 z"
         inkscape:connector-curvature="0"
         style="fill:#ffffff;fill-opacity:1;stroke:#fffff6;stroke-width:53;stroke-linejoin:round;stroke-opacity:1" /></g></g><g
     style="fill:#ffffff;fill-opacity:1;stroke:#fffff6;stroke-opacity:1;opacity:0.6"
     id="g128"
     class="com.sun.star.drawing.ClosedBezierShape"><g
       style="fill:#ffffff;fill-opacity:1;stroke:#fffff6;stroke-opacity:1"
       id="id15"><path
         id="path123"
         d="m 1394,1552 c -78,0 -142,64 -142,141 0,78 64,142 142,142 78,0 141,-64 141,-142 0,-77 -63,-141 -141,-141 z"
         inkscape:connector-curvature="0"
         style="fill:#ffffff;fill-opacity:1;stroke:#fffff6;stroke-opacity:1" /><path
         id="path125"
         d="m 1394,1552 c -78,0 -142,64 -142,141 0,78 64,142 142,142 78,0 141,-64 141,-142 0,-77 -63,-141 -141,-141 z"
         inkscape:connector-curvature="0"
         style="fill:#ffffff;fill-opacity:1;stroke:#fffff6;stroke-width:53;stroke-linejoin:round;stroke-opacity:1" /></g></g><g
     style="fill:#ffffff;fill-opacity:1;stroke:#fffff6;stroke-opacity:1;opacity:0.6"
     id="g135"
     class="com.sun.star.drawing.ClosedBezierShape"><g
       style="fill:#ffffff;fill-opacity:1;stroke:#fffff6;stroke-opacity:1"
       id="id16"><path
         id="path130"
         d="m 2036,1552 c -78,0 -141,64 -141,141 0,78 63,142 141,142 78,0 141,-64 141,-142 0,-77 -63,-141 -141,-141 z"
         inkscape:connector-curvature="0"
         style="fill:#ffffff;fill-opacity:1;stroke:#fffff6;stroke-opacity:1" /><path
         id="path132"
         d="m 2036,1552 c -78,0 -141,64 -141,141 0,78 63,142 141,142 78,0 141,-64 141,-142 0,-77 -63,-141 -141,-141 z"
         inkscape:connector-curvature="0"
         style="fill:#ffffff;fill-opacity:1;stroke:#fffff6;stroke-width:53;stroke-linejoin:round;stroke-opacity:1" /></g></g><g
     style="fill:#ffffff;fill-opacity:1;stroke:#fffff6;stroke-opacity:1;opacity:0.6"
     id="g142"
     class="com.sun.star.drawing.ClosedBezierShape"><g
       style="fill:#ffffff;fill-opacity:1;stroke:#fffff6;stroke-opacity:1"
       id="id17"><path
         id="path137"
         d="m 2664,1552 c -78,0 -141,64 -141,141 0,78 63,142 141,142 78,0 141,-64 141,-142 0,-77 -63,-141 -141,-141 z"
         inkscape:connector-curvature="0"
         style="fill:#ffffff;fill-opacity:1;stroke:#fffff6;stroke-opacity:1" /><path
         id="path139"
         d="m 2664,1552 c -78,0 -141,64 -141,141 0,78 63,142 141,142 78,0 141,-64 141,-142 0,-77 -63,-141 -141,-141 z"
         inkscape:connector-curvature="0"
         style="fill:#ffffff;fill-opacity:1;stroke:#fffff6;stroke-width:53;stroke-linejoin:round;stroke-opacity:1" /></g></g><g
     style="fill:#ffffff;fill-opacity:1;stroke:#fffff6;stroke-opacity:1;opacity:0.6"
     id="g149"
     class="com.sun.star.drawing.ClosedBezierShape"><g
       style="fill:#ffffff;fill-opacity:1;stroke:#fffff6;stroke-opacity:1"
       id="id18"><path
         id="path144"
         d="m 765,2117 c -78,0 -141,63 -141,141 0,78 63,141 141,141 78,0 142,-63 142,-141 0,-78 -64,-141 -142,-141 z"
         inkscape:connector-curvature="0"
         style="fill:#ffffff;fill-opacity:1;stroke:#fffff6;stroke-opacity:1" /><path
         id="path146"
         d="m 765,2117 c -78,0 -141,63 -141,141 0,78 63,141 141,141 78,0 142,-63 142,-141 0,-78 -64,-141 -142,-141 z"
         inkscape:connector-curvature="0"
         style="fill:#ffffff;fill-opacity:1;stroke:#fffff6;stroke-width:53;stroke-linejoin:round;stroke-opacity:1" /></g></g><g
     style="fill:#ffffff;fill-opacity:1;stroke:#fffff6;stroke-opacity:1;opacity:0.6"
     id="g156"
     class="com.sun.star.drawing.ClosedBezierShape"><g
       style="fill:#ffffff;fill-opacity:1;stroke:#fffff6;stroke-opacity:1"
       id="id19"><path
         id="path151"
         d="m 1394,2117 c -78,0 -142,63 -142,141 0,78 64,141 142,141 78,0 141,-63 141,-141 0,-78 -63,-141 -141,-141 z"
         inkscape:connector-curvature="0"
         style="fill:#ffffff;fill-opacity:1;stroke:#fffff6;stroke-opacity:1" /><path
         id="path153"
         d="m 1394,2117 c -78,0 -142,63 -142,141 0,78 64,141 142,141 78,0 141,-63 141,-141 0,-78 -63,-141 -141,-141 z"
         inkscape:connector-curvature="0"
         style="fill:#ffffff;fill-opacity:1;stroke:#fffff6;stroke-width:53;stroke-linejoin:round;stroke-opacity:1" /></g></g><g
     style="fill:#ffffff;fill-opacity:1;stroke:#fffff6;stroke-opacity:1;opacity:0.6"
     id="g163"
     class="com.sun.star.drawing.ClosedBezierShape"><g
       style="fill:#ffffff;fill-opacity:1;stroke:#fffff6;stroke-opacity:1"
       id="id20"><path
         id="path158"
         d="m 2036,2117 c -78,0 -141,63 -141,141 0,78 63,141 141,141 78,0 141,-63 141,-141 0,-78 -63,-141 -141,-141 z"
         inkscape:connector-curvature="0"
         style="fill:#ffffff;fill-opacity:1;stroke:#fffff6;stroke-opacity:1" /><path
         id="path160"
         d="m 2036,2117 c -78,0 -141,63 -141,141 0,78 63,141 141,141 78,0 141,-63 141,-141 0,-78 -63,-141 -141,-141 z"
         inkscape:connector-curvature="0"
         style="fill:#ffffff;fill-opacity:1;stroke:#fffff6;stroke-width:53;stroke-linejoin:round;stroke-opacity:1" /></g></g><g
     style="fill:#ffffff;fill-opacity:1;stroke:#fffff6;stroke-opacity:1;opacity:0.6"
     id="g170"
     class="com.sun.star.drawing.ClosedBezierShape"><g
       style="fill:#ffffff;fill-opacity:1;stroke:#fffff6;stroke-opacity:1"
       id="id21"><path
         id="path165"
         d="m 2664,2117 c -78,0 -141,63 -141,141 0,78 63,141 141,141 78,0 141,-63 141,-141 0,-78 -63,-141 -141,-141 z"
         inkscape:connector-curvature="0"
         style="fill:#ffffff;fill-opacity:1;stroke:#fffff6;stroke-opacity:1" /><path
         id="path167"
         d="m 2664,2117 c -78,0 -141,63 -141,141 0,78 63,141 141,141 78,0 141,-63 141,-141 0,-78 -63,-141 -141,-141 z"
         inkscape:connector-curvature="0"
         style="fill:#ffffff;fill-opacity:1;stroke:#fffff6;stroke-width:53;stroke-linejoin:round;stroke-opacity:1" /></g></g><g
     style="fill:#ffffff;fill-opacity:1;stroke:#fffff6;stroke-opacity:1;opacity:0.6"
     id="g177"
     class="com.sun.star.drawing.ClosedBezierShape"><g
       style="fill:#ffffff;fill-opacity:1;stroke:#fffff6;stroke-opacity:1"
       id="id22"><path
         id="path172"
         d="m 765,2682 c -78,0 -141,63 -141,141 0,78 63,141 141,141 78,0 142,-63 142,-141 0,-78 -64,-141 -142,-141 z"
         inkscape:connector-curvature="0"
         style="fill:#ffffff;fill-opacity:1;stroke:#fffff6;stroke-opacity:1" /><path
         id="path174"
         d="m 765,2682 c -78,0 -141,63 -141,141 0,78 63,141 141,141 78,0 142,-63 142,-141 0,-78 -64,-141 -142,-141 z"
         inkscape:connector-curvature="0"
         style="fill:#ffffff;fill-opacity:1;stroke:#fffff6;stroke-width:53;stroke-linejoin:round;stroke-opacity:1" /></g></g><g
     style="fill:#ffffff;fill-opacity:1;stroke:#fffff6;stroke-opacity:1;opacity:0.6"
     id="g184"
     class="com.sun.star.drawing.ClosedBezierShape"><g
       style="fill:#ffffff;fill-opacity:1;stroke:#fffff6;stroke-opacity:1"
       id="id23"><path
         id="path179"
         d="m 1394,2682 c -78,0 -142,63 -142,141 0,78 64,141 142,141 78,0 141,-63 141,-141 0,-78 -63,-141 -141,-141 z"
         inkscape:connector-curvature="0"
         style="fill:#ffffff;fill-opacity:1;stroke:#fffff6;stroke-opacity:1" /><path
         id="path181"
         d="m 1394,2682 c -78,0 -142,63 -142,141 0,78 64,141 142,141 78,0 141,-63 141,-141 0,-78 -63,-141 -141,-141 z"
         inkscape:connector-curvature="0"
         style="fill:#ffffff;fill-opacity:1;stroke:#fffff6;stroke-width:53;stroke-linejoin:round;stroke-opacity:1" /></g></g><g
     style="fill:#ffffff;fill-opacity:1;stroke:#fffff6;stroke-opacity:1;opacity:0.6"
     id="g191"
     class="com.sun.star.drawing.ClosedBezierShape"><g
       style="fill:#ffffff;fill-opacity:1;stroke:#fffff6;stroke-opacity:1"
       id="id24"><path
         id="path186"
         d="m 2036,2682 c -78,0 -141,63 -141,141 0,78 63,141 141,141 78,0 141,-63 141,-141 0,-78 -63,-141 -141,-141 z"
         inkscape:connector-curvature="0"
         style="fill:#ffffff;fill-opacity:1;stroke:#fffff6;stroke-opacity:1" /><path
         id="path188"
         d="m 2036,2682 c -78,0 -141,63 -141,141 0,78 63,141 141,141 78,0 141,-63 141,-141 0,-78 -63,-141 -141,-141 z"
         inkscape:connector-curvature="0"
         style="fill:#ffffff;fill-opacity:1;stroke:#fffff6;stroke-width:53;stroke-linejoin:round;stroke-opacity:1" /></g></g><g
     style="fill:#ffffff;fill-opacity:1;stroke:#fffff6;stroke-opacity:1;opacity:0.6"
     id="g198"
     class="com.sun.star.drawing.ClosedBezierShape"><g
       style="fill:#ffffff;fill-opacity:1;stroke:#fffff6;stroke-opacity:1"
       id="id25"><path
         id="path193"
         d="m 2664,2682 c -78,0 -141,63 -141,141 0,78 63,141 141,141 78,0 141,-63 141,-141 0,-78 -63,-141 -141,-141 z"
         inkscape:connector-curvature="0"
         style="fill:#ffffff;fill-opacity:1;stroke:#fffff6;stroke-opacity:1" /><path
         id="path195"
         d="m 2664,2682 c -78,0 -141,63 -141,141 0,78 63,141 141,141 78,0 141,-63 141,-141 0,-78 -63,-141 -141,-141 z"
         inkscape:connector-curvature="0"
         style="fill:#ffffff;fill-opacity:1;stroke:#fffff6;stroke-width:53;stroke-linejoin:round;stroke-opacity:1" /></g></g></g></svg>