<?xml version="1.0" encoding="UTF-8"?>
<!-- Created with Inkscape (http://www.inkscape.org/) -->
<svg id="svg4874" width="96" height="96" version="1.1" viewBox="0 0 96 96" xmlns="http://www.w3.org/2000/svg" xmlns:cc="http://creativecommons.org/ns#" xmlns:dc="http://purl.org/dc/elements/1.1/" xmlns:rdf="http://www.w3.org/1999/02/22-rdf-syntax-ns#">
 <metadata id="metadata4879">
  <rdf:RDF>
   <cc:Work rdf:about="">
    <dc:format>image/svg+xml</dc:format>
    <dc:type rdf:resource="http://purl.org/dc/dcmitype/StillImage"/>
    <dc:title/>
   </cc:Work>
  </rdf:RDF>
 </metadata>
 <g id="layer1" transform="translate(67.857 -78.505)">
  <rect id="rect4782-3" transform="rotate(90)" x="78.505" y="-28.143" width="96" height="96" style="color:#000000;fill:none"/>
  <path id="path5823" d="m17.073 93.463-16.965 16.976c3.761 1.401 7.7088 2.7082 11.843 3.9248 4.1122 1.1879 8.1765 2.2361 12.193 3.1414-0.93642-3.9851-1.9991-8.035-3.187-12.147-1.2172-4.136-2.5112-8.1001-3.8822-11.894z" style="color:#000000;fill:#808080"/>
  <path id="path5825" d="m-56.822 159.51 16.965-16.976c-3.761-1.401-7.7088-2.7082-11.843-3.9248-4.1122-1.1879-8.1765-2.2361-12.193-3.1414 0.93642 3.9851 1.9991 8.035 3.187 12.147 1.2172 4.136 2.5112 8.1001 3.8821 11.894z" style="color:#000000;fill:#808080"/>
  <path id="path4229" transform="translate(-67.857 78.505)" d="m48 8c-22.068 0-40 17.932-40 40 0 0.65229 0.019802 1.3006 0.050781 1.9453 1.3552 0.33531 2.7161 0.68578 4.082 1.0527-0.081327-0.98917-0.13281-1.9876-0.13281-2.998 0-19.906 16.094-36 36-36 13.005 0 24.379 6.8717 30.705 17.186l2.8594-2.8613c-7.1187-11.016-19.488-18.324-33.564-18.324zm35.863 36.969c0.083248 1.0006 0.13672 2.0089 0.13672 3.0312 0 19.906-16.094 36-36 36-13.025 0-24.416-6.8923-30.736-17.232l-2.8789 2.8809c7.1264 11.033 19.523 18.352 33.615 18.352 22.068 0 40-17.932 40-40a2.0002 2.0002 0 0 0-0.041016-0.40625c-0.005446-0.53157-0.030624-1.0575-0.05664-1.584-1.341-0.33159-2.6875-0.67843-4.0391-1.041z" style="color-rendering:auto;color:#000000;dominant-baseline:auto;fill:#808080;font-feature-settings:normal;font-variant-alternates:normal;font-variant-caps:normal;font-variant-ligatures:normal;font-variant-numeric:normal;font-variant-position:normal;image-rendering:auto;isolation:auto;mix-blend-mode:normal;shape-padding:0;shape-rendering:auto;solid-color:#000000;text-decoration-color:#000000;text-decoration-line:none;text-decoration-style:solid;text-indent:0;text-orientation:mixed;text-transform:none;white-space:normal"/>
 </g>
</svg>
