<?xml version="1.0" encoding="UTF-8" standalone="no"?>
<svg
   xmlns:dc="http://purl.org/dc/elements/1.1/"
   xmlns:cc="http://creativecommons.org/ns#"
   xmlns:rdf="http://www.w3.org/1999/02/22-rdf-syntax-ns#"
   xmlns:svg="http://www.w3.org/2000/svg"
   xmlns="http://www.w3.org/2000/svg"
   xmlns:sodipodi="http://sodipodi.sourceforge.net/DTD/sodipodi-0.dtd"
   xmlns:inkscape="http://www.inkscape.org/namespaces/inkscape"
   fill="#000000"
   height="24"
   viewBox="0 0 24 24"
   width="24"
   version="1.1"
   id="svg6"
   sodipodi:docname="audio-volume-muted.svg"
   inkscape:version="0.92.2 (5c3e80d, 2017-08-06)">
  <metadata
     id="metadata12">
    <rdf:RDF>
      <cc:Work
         rdf:about="">
        <dc:format>image/svg+xml</dc:format>
        <dc:type
           rdf:resource="http://purl.org/dc/dcmitype/StillImage" />
      </cc:Work>
    </rdf:RDF>
  </metadata>
  <defs
     id="defs10" />
  <sodipodi:namedview
     pagecolor="#ffffff"
     bordercolor="#666666"
     borderopacity="1"
     objecttolerance="10"
     gridtolerance="10"
     guidetolerance="10"
     inkscape:pageopacity="0"
     inkscape:pageshadow="2"
     inkscape:window-width="1331"
     inkscape:window-height="1188"
     id="namedview8"
     showgrid="false"
     inkscape:zoom="22.627417"
     inkscape:cx="23.176436"
     inkscape:cy="6.2145473"
     inkscape:window-x="859"
     inkscape:window-y="166"
     inkscape:window-maximized="0"
     inkscape:current-layer="svg6"
     inkscape:snap-nodes="false" />
  <path
     d="M 16.5,12 C 16.5,10.23 15.48,8.71 14,7.97 v 2.21 l 2.45,2.45 C 16.48,12.43 16.5,12.22 16.5,12 Z m 2.5,0 c 0,0.94 -0.2,1.82 -0.54,2.64 l 1.51,1.51 C 20.63,14.91 21,13.5 21,12 21,7.72 18.01,4.14 14,3.23 v 2.06 c 2.89,0.86 5,3.54 5,6.71 z M 7.73,9 H 3 v 6 h 4 l 5,5 V 13.27 C 7.7042504,9.0106389 7.7249459,9.0307573 7.73,9 Z M 12,4 9.91,6.09 12,8.18 Z"
     id="path2"
     style="fill:#808080"
     inkscape:connector-curvature="0"
     sodipodi:nodetypes="scccssccsccsccccccccccc" />
  <path
     d="M0 0h24v24H0z"
     fill="none"
     id="path4" />
  <path
     d="M 21.104438,21.031124 22.374752,19.764373 5.6503242,3.0219762 4.3695847,4.3154268 Z"
     id="path4-5"
     inkscape:connector-curvature="0"
     sodipodi:nodetypes="ccccc"
     style="fill:#ff0000" />
  <path
     d="m 16.245282,17.514114 c -0.67,0.52 -1.42,0.93 -2.25,1.18 v 2.06 c 1.38,-0.31 2.63,-0.95 3.69,-1.81 0,0 -1.432347,-1.419796 -1.44,-1.43 z"
     id="path2-3"
     style="fill:#808080"
     inkscape:connector-curvature="0"
     sodipodi:nodetypes="ccccc" />
</svg>
