<?xml version="1.0" encoding="UTF-8" standalone="no"?>
<!-- Created with Inkscape (http://www.inkscape.org/) -->

<svg
   xmlns:dc="http://purl.org/dc/elements/1.1/"
   xmlns:cc="http://creativecommons.org/ns#"
   xmlns:rdf="http://www.w3.org/1999/02/22-rdf-syntax-ns#"
   xmlns:svg="http://www.w3.org/2000/svg"
   xmlns="http://www.w3.org/2000/svg"
   xmlns:sodipodi="http://sodipodi.sourceforge.net/DTD/sodipodi-0.dtd"
   xmlns:inkscape="http://www.inkscape.org/namespaces/inkscape"
   width="96"
   height="96"
   id="svg4874"
   version="1.1"
   inkscape:version="0.91+devel r"
   viewBox="0 0 96 96.000001"
   sodipodi:docname="edit-cut.svg">
  <defs
     id="defs4876" />
  <sodipodi:namedview
     id="base"
     pagecolor="#ffffff"
     bordercolor="#666666"
     borderopacity="1.0"
     inkscape:pageopacity="0.0"
     inkscape:pageshadow="2"
     inkscape:zoom="7.0249991"
     inkscape:cx="37.722419"
     inkscape:cy="48.612089"
     inkscape:document-units="px"
     inkscape:current-layer="g4780"
     showgrid="true"
     showborder="true"
     fit-margin-top="0"
     fit-margin-left="0"
     fit-margin-right="0"
     fit-margin-bottom="0"
     inkscape:snap-bbox="true"
     inkscape:bbox-paths="true"
     inkscape:bbox-nodes="true"
     inkscape:snap-bbox-edge-midpoints="true"
     inkscape:snap-bbox-midpoints="true"
     inkscape:object-paths="true"
     inkscape:snap-intersection-paths="true"
     inkscape:object-nodes="true"
     inkscape:snap-smooth-nodes="true"
     inkscape:snap-midpoints="true"
     inkscape:snap-object-midpoints="true"
     inkscape:snap-center="true"
     showguides="true"
     inkscape:guide-bbox="true"
     inkscape:snap-global="true">
    <inkscape:grid
       type="xygrid"
       id="grid5451"
       empspacing="8" />
    <sodipodi:guide
       orientation="1,0"
       position="8,-8.0000001"
       id="guide4063" />
    <sodipodi:guide
       orientation="1,0"
       position="4,-8.0000001"
       id="guide4065" />
    <sodipodi:guide
       orientation="0,1"
       position="-8,88.000001"
       id="guide4067" />
    <sodipodi:guide
       orientation="0,1"
       position="-8,92.000001"
       id="guide4069" />
    <sodipodi:guide
       orientation="0,1"
       position="104,4"
       id="guide4071" />
    <sodipodi:guide
       orientation="0,1"
       position="-5,8.0000001"
       id="guide4073" />
    <sodipodi:guide
       orientation="1,0"
       position="88,-8.0000001"
       id="guide4077" />
    <sodipodi:guide
       orientation="0,1"
       position="-8,84.000001"
       id="guide4074" />
    <sodipodi:guide
       orientation="1,0"
       position="12,-8.0000001"
       id="guide4076" />
    <sodipodi:guide
       orientation="1,0"
       position="84,-8.0000001"
       id="guide4080" />
    <sodipodi:guide
       position="48,-8.0000001"
       orientation="1,0"
       id="guide4170" />
    <sodipodi:guide
       position="-8,48"
       orientation="0,1"
       id="guide4172" />
    <sodipodi:guide
       position="92,-8.0000001"
       orientation="1,0"
       id="guide4760" />
  </sodipodi:namedview>
  <metadata
     id="metadata4879">
    <rdf:RDF>
      <cc:Work
         rdf:about="">
        <dc:format>image/svg+xml</dc:format>
        <dc:type
           rdf:resource="http://purl.org/dc/dcmitype/StillImage" />
        <dc:title></dc:title>
      </cc:Work>
    </rdf:RDF>
  </metadata>
  <g
     inkscape:label="Layer 1"
     inkscape:groupmode="layer"
     id="layer1"
     transform="translate(67.857146,-78.50504)">
    <g
       transform="matrix(0,-1,-1,0,373.50506,516.50504)"
       id="g4845"
       style="display:inline">
      <g
         inkscape:export-ydpi="90"
         inkscape:export-xdpi="90"
         inkscape:export-filename="next01.png"
         transform="matrix(-0.9996045,0,0,1,575.94296,-611.00001)"
         id="g4778"
         inkscape:label="Layer 1">
        <g
           transform="matrix(-1,0,0,1,575.99999,611)"
           id="g4780"
           style="display:inline">
          <rect
             style="color:#000000;display:inline;overflow:visible;visibility:visible;fill:none;stroke:none;stroke-width:4;marker:none;enable-background:accumulate"
             id="rect4782"
             width="96.037987"
             height="96"
             x="-438.00244"
             y="345.36221"
             transform="scale(-1,1)" />
          <path
             style="font-style:normal;font-variant:normal;font-weight:500;font-stretch:normal;font-size:33.10908127px;line-height:125%;font-family:Ubuntu;-inkscape-font-specification:'Ubuntu Medium';text-align:center;letter-spacing:0px;word-spacing:0px;writing-mode:lr-tb;text-anchor:middle;display:inline;fill:#808080;fill-opacity:1;stroke:none"
             d="M 56.945312 2.015625 L 55.492188 7.4394531 L 55.496094 7.4394531 L 40.166016 64.654297 C 39.948796 65.464996 39.709585 66.152535 39.421875 66.734375 L 39.40625 66.761719 L 39.390625 66.789062 C 39.045505 67.388465 38.595181 67.899963 38.056641 68.287109 L 38.035156 68.300781 L 38.015625 68.3125 C 37.471115 68.66628 36.808562 68.906376 36.070312 68.974609 C 34.205252 69.146961 32.744819 68.422506 31.505859 68.056641 C 29.837779 67.563976 28.214336 67.496375 26.634766 67.732422 L 26.625 67.734375 L 26.615234 67.736328 C 25.054934 67.940147 23.630095 68.449206 22.296875 69.269531 C 21.001165 70.095984 19.847395 71.210655 18.828125 72.642578 C 17.861565 74.035207 17.110674 75.702296 16.583984 77.667969 C 16.057354 79.633161 15.8675 81.474161 16 83.199219 C 16.16709 84.950486 16.607019 86.491562 17.318359 87.857422 C 18.030449 89.224761 18.998704 90.392618 20.246094 91.384766 C 21.480774 92.366847 22.954092 93.092422 24.701172 93.560547 C 26.448732 94.028812 28.087044 94.139258 29.646484 93.90625 L 29.650391 93.904297 L 29.654297 93.904297 C 31.262717 93.676777 32.699404 93.148029 33.996094 92.322266 C 35.291984 91.497012 36.425869 90.385447 37.412109 88.947266 C 38.392459 87.517591 39.149984 85.825049 39.677734 83.855469 L 43.826172 68.380859 L 52.261719 54.833984 C 55.242839 38.500807 57.415279 21.967342 60.574219 5.59375 L 60.576172 5.5878906 L 60.576172 5.5839844 C 60.687672 5.0359112 60.782642 4.5902804 60.794922 4.2675781 C 60.803922 4.0372393 60.722591 3.6088505 60.650391 3.4316406 C 60.566291 3.2252223 60.437179 3.0538215 60.199219 2.8710938 L 60.191406 2.8652344 L 60.183594 2.859375 C 59.971314 2.6892923 59.614963 2.5082756 59.095703 2.3691406 C 58.453123 2.1969687 57.888399 2.0896242 57.412109 2.0449219 C 57.214099 2.0262293 57.110013 2.0276203 56.945312 2.015625 z M 48 48.001953 A 2.9995402 2.9995402 0 0 1 51 51 A 2.9995402 2.9995402 0 0 1 48 54 A 2.9995402 2.9995402 0 0 1 45 51 A 2.9995402 2.9995402 0 0 1 48 48.001953 z M 28.375 71.060547 C 28.57833 71.05155 28.782171 71.052504 28.988281 71.0625 C 29.534621 71.089789 30.09099 71.176645 30.65625 71.328125 C 32.90274 71.930067 34.576754 73.396473 35.371094 75.490234 C 36.204784 77.553588 36.196431 79.989565 35.462891 82.726562 C 34.721041 85.495187 33.503994 87.641717 31.746094 89.044922 C 30.010154 90.46541 27.822909 90.897443 25.574219 90.294922 C 23.323409 89.691791 21.637397 88.225375 20.810547 86.123047 L 20.806641 86.117188 L 20.804688 86.111328 C 20.018217 84.025543 20.055135 81.569336 20.796875 78.800781 L 20.796875 78.796875 C 21.530165 76.060158 22.720876 73.945117 24.441406 72.564453 L 24.441406 72.5625 L 24.443359 72.560547 C 25.603329 71.636852 26.95167 71.120053 28.375 71.060547 z "
             transform="matrix(0,-1,-1.0003957,0,438.00245,441.36222)"
             id="path4184" />
          <path
             style="font-style:normal;font-variant:normal;font-weight:500;font-stretch:normal;font-size:33.10908127px;line-height:125%;font-family:Ubuntu;-inkscape-font-specification:'Ubuntu Medium';text-align:center;letter-spacing:0px;word-spacing:0px;writing-mode:lr-tb;text-anchor:middle;display:inline;fill:#808080;fill-opacity:1;stroke:none"
             d="m 435.98603,402.30753 c -0.012,0.16471 -0.0106,0.26879 -0.0293,0.4668 -0.0447,0.47629 -0.15211,1.04101 -0.32435,1.68359 -0.13918,0.51925 -0.32027,0.87562 -0.49043,1.08789 l -0.006,0.008 -0.006,0.008 c -0.1828,0.23796 -0.35427,0.36707 -0.56077,0.45117 -0.17728,0.0722 -0.60584,0.15353 -0.83627,0.14453 -0.32282,-0.0123 -0.76863,-0.10726 -1.31692,-0.21875 l -0.004,0 -0.006,-0.002 c -12.52899,-2.41624 -25.14995,-4.25888 -37.70437,-6.32422 l 15.60383,-4.17773 20.2541,5.42578 0,-0.006 5.42598,1.45312 z m -33.41361,-8.94336 -17.30372,4.63477 c -0.70694,-0.12598 -1.4157,-0.24615 -2.12193,-0.375 l -13.55224,-8.43555 -15.48073,-4.14844 c -1.97036,-0.52775 -3.66357,-1.28526 -5.09381,-2.26562 -1.43875,-0.98623 -2.55076,-2.12013 -3.37634,-3.41602 -0.82609,-1.29669 -1.35505,-2.73141 -1.58265,-4.33984 l 0,-0.006 -0.002,-0.004 c -0.23311,-1.55945 -0.12261,-3.19774 0.34584,-4.94531 0.46831,-1.74707 1.19418,-3.22039 2.17664,-4.45508 0.99255,-1.24739 2.16086,-2.21563 3.52874,-2.92773 1.3664,-0.71133 2.90808,-1.15127 4.66005,-1.31836 1.72574,-0.1325 3.56747,0.0574 5.53344,0.58398 1.96644,0.52669 3.6342,1.27758 5.02738,2.24414 1.43249,1.01927 2.5476,2.17304 3.37438,3.46875 0.82065,1.33322 1.3299,2.75805 1.53381,4.31836 l 0.002,0.01 0.002,0.01 c 0.23613,1.57958 0.16851,3.20301 -0.32435,4.87109 -0.36601,1.23896 -1.09075,2.70135 -0.91833,4.56641 0.0683,0.73825 0.30844,1.39884 0.66237,1.94335 l 0.0117,0.0215 0.0137,0.0195 c 0.38731,0.53855 0.899,0.98886 1.49864,1.33398 l 0.0274,0.0176 0.0274,0.0137 c 0.58207,0.28771 1.26987,0.52694 2.0809,0.74415 l 29.24985,7.83593 z m -12.59092,-0.002 a 3.0007271,2.9995402 0 0 0 -0.0156,-0.29883 3.0007271,2.9995402 0 0 0 -0.22079,-0.86914 3.0007271,2.9995402 0 0 0 -2.25284,-1.78906 3.0007272,2.9995402 0 0 0 -0.002,0 3.0007271,2.9995402 0 0 0 -0.29699,-0.0352 3.0007272,2.9995402 0 0 0 -0.21102,-0.008 3.0007271,2.9995402 0 0 0 -2.67489,1.63867 3.0007272,2.9995402 0 0 0 -0.21688,0.5586 3.0007272,2.9995402 0 0 0 -0.1016,0.58984 3.0007271,2.9995402 0 0 0 -0.008,0.21289 3.0007271,2.9995402 0 0 0 1.63932,2.67383 3.0007272,2.9995402 0 0 0 0.55882,0.21679 3.0007271,2.9995402 0 0 0 0.80305,0.10938 3.0007271,2.9995402 0 0 0 2.15124,-0.91016 3.0007271,2.9995402 0 0 0 0.1993,-0.22656 3.0007271,2.9995402 0 0 0 0.60571,-1.35351 3.0007272,2.9995402 0 0 0 0.0352,-0.29883 3.0007271,2.9995402 0 0 0 0.008,-0.21094 z m -23.06772,-19.625 c -0.0595,-1.42333 -0.57653,-2.77168 -1.50059,-3.93164 l -0.002,-0.002 -0.002,0 c -1.3812,-1.72054 -3.49709,-2.91125 -6.23488,-3.64454 l -0.004,0 c -2.76966,-0.74173 -5.22683,-0.77865 -7.31344,0.008 l -0.006,0.002 -0.006,0.004 c -2.10316,0.82684 -3.57016,2.51286 -4.17352,4.76367 -0.60276,2.24869 -0.17056,4.43593 1.25049,6.17187 1.40376,1.7579 3.55114,2.9769 6.32086,3.71875 2.73808,0.73353 5.17502,0.73994 7.23919,-0.0937 2.09458,-0.79434 3.56158,-2.46835 4.16376,-4.71484 0.15153,-0.56526 0.23843,-1.12163 0.26573,-1.66797 0.01,-0.20611 0.01,-0.40995 0.002,-0.61328 z"
             id="path4192"
             inkscape:connector-curvature="0" />
        </g>
      </g>
    </g>
  </g>
</svg>
