<?xml version="1.0" encoding="UTF-8" standalone="no"?>
<!-- Created with Inkscape (http://www.inkscape.org/) -->

<svg
   xmlns:dc="http://purl.org/dc/elements/1.1/"
   xmlns:cc="http://creativecommons.org/ns#"
   xmlns:rdf="http://www.w3.org/1999/02/22-rdf-syntax-ns#"
   xmlns:svg="http://www.w3.org/2000/svg"
   xmlns="http://www.w3.org/2000/svg"
   xmlns:sodipodi="http://sodipodi.sourceforge.net/DTD/sodipodi-0.dtd"
   xmlns:inkscape="http://www.inkscape.org/namespaces/inkscape"
   width="96"
   height="96"
   id="svg4874"
   version="1.1"
   inkscape:version="0.91+devel r"
   viewBox="0 0 96 96.000001"
   sodipodi:docname="non-starred.svg">
  <defs
     id="defs4876" />
  <sodipodi:namedview
     id="base"
     pagecolor="#ffffff"
     bordercolor="#666666"
     borderopacity="1.0"
     inkscape:pageopacity="0.0"
     inkscape:pageshadow="2"
     inkscape:zoom="5.6199993"
     inkscape:cx="-4.3416438"
     inkscape:cy="69.76867"
     inkscape:document-units="px"
     inkscape:current-layer="g4780"
     showgrid="true"
     showborder="true"
     fit-margin-top="0"
     fit-margin-left="0"
     fit-margin-right="0"
     fit-margin-bottom="0"
     inkscape:snap-bbox="true"
     inkscape:bbox-paths="true"
     inkscape:bbox-nodes="true"
     inkscape:snap-bbox-edge-midpoints="true"
     inkscape:snap-bbox-midpoints="true"
     inkscape:object-paths="true"
     inkscape:snap-intersection-paths="true"
     inkscape:object-nodes="true"
     inkscape:snap-smooth-nodes="true"
     inkscape:snap-midpoints="true"
     inkscape:snap-object-midpoints="true"
     inkscape:snap-center="true"
     showguides="true"
     inkscape:guide-bbox="true"
     inkscape:snap-global="true">
    <inkscape:grid
       type="xygrid"
       id="grid5451"
       empspacing="8" />
    <sodipodi:guide
       orientation="1,0"
       position="8,-8.0000001"
       id="guide4063" />
    <sodipodi:guide
       orientation="1,0"
       position="4,-8.0000001"
       id="guide4065" />
    <sodipodi:guide
       orientation="0,1"
       position="-8,88.000001"
       id="guide4067" />
    <sodipodi:guide
       orientation="0,1"
       position="-8,92.000001"
       id="guide4069" />
    <sodipodi:guide
       orientation="0,1"
       position="104,4"
       id="guide4071" />
    <sodipodi:guide
       orientation="0,1"
       position="-5,8.0000001"
       id="guide4073" />
    <sodipodi:guide
       orientation="1,0"
       position="88,-8.0000001"
       id="guide4077" />
    <sodipodi:guide
       orientation="0,1"
       position="-8,84.000001"
       id="guide4074" />
    <sodipodi:guide
       orientation="1,0"
       position="12,-8.0000001"
       id="guide4076" />
    <sodipodi:guide
       orientation="1,0"
       position="84,-8.0000001"
       id="guide4080" />
    <sodipodi:guide
       position="48,-8.0000001"
       orientation="1,0"
       id="guide4170" />
    <sodipodi:guide
       position="-8,48"
       orientation="0,1"
       id="guide4172" />
    <sodipodi:guide
       position="92,-8.0000001"
       orientation="1,0"
       id="guide4760" />
  </sodipodi:namedview>
  <metadata
     id="metadata4879">
    <rdf:RDF>
      <cc:Work
         rdf:about="">
        <dc:format>image/svg+xml</dc:format>
        <dc:type
           rdf:resource="http://purl.org/dc/dcmitype/StillImage" />
        <dc:title></dc:title>
      </cc:Work>
    </rdf:RDF>
  </metadata>
  <g
     inkscape:label="Layer 1"
     inkscape:groupmode="layer"
     id="layer1"
     transform="translate(67.857146,-78.50504)">
    <g
       transform="matrix(0,-1,-1,0,373.50506,516.50504)"
       id="g4845"
       style="display:inline">
      <g
         inkscape:export-ydpi="90"
         inkscape:export-xdpi="90"
         inkscape:export-filename="next01.png"
         transform="matrix(-0.9996045,0,0,1,575.94296,-611.00001)"
         id="g4778"
         inkscape:label="Layer 1">
        <g
           transform="matrix(-1,0,0,1,575.99999,611)"
           id="g4780"
           style="display:inline">
          <rect
             style="color:#000000;display:inline;overflow:visible;visibility:visible;fill:none;stroke:none;stroke-width:4;marker:none;enable-background:accumulate"
             id="rect4782"
             width="96.037987"
             height="96"
             x="-438.00244"
             y="345.36221"
             transform="scale(-1,1)" />
          <path
             style="color:#000000;display:inline;overflow:visible;visibility:visible;fill:#808080;fill-opacity:1;fill-rule:nonzero;stroke:none;stroke-width:3;marker:none;enable-background:accumulate"
             d="M 48.021484 8 C 48.021484 8 48.023438 8.0019531 48.023438 8.0019531 C 48.023438 8.0019531 48.025391 8 48.025391 8 L 48.021484 8 z M 48.023438 8.0019531 C 48.020658 8.0024345 48.017186 8.0030924 48.015625 8.0078125 C 48.008625 8.0088121 48.007859 8.0126262 48.005859 8.015625 C 47.999859 8.0186238 47.999047 8.0243449 47.998047 8.0273438 C 47.992047 8.0303426 47.991281 8.0292047 47.988281 8.0332031 C 42.927951 18.893186 39.018172 29.962354 36.794922 36.744141 C 29.481092 36.750138 17.434385 37.027378 5.953125 38.517578 C 5.952125 38.521577 5.9510781 38.522392 5.9550781 38.525391 C 5.9540781 38.532388 5.9598906 38.536164 5.9628906 38.539062 C 5.9638906 38.54606 5.96575 38.548782 5.96875 38.550781 C 5.96975 38.557778 5.9706562 38.555595 5.9726562 38.558594 C 14.737316 46.727322 24.057332 53.865858 29.820312 58.076172 C 27.565103 65.033519 24.105319 76.578677 21.974609 87.958984 C 21.977609 87.960984 21.979375 87.961983 21.984375 87.958984 C 21.990375 87.961983 21.993194 87.956078 21.996094 87.955078 C 22.003094 87.956078 22.007866 87.954125 22.009766 87.953125 C 22.016766 87.954125 22.016531 87.954125 22.019531 87.953125 C 32.497441 82.141414 42.168135 75.48841 47.953125 71.308594 C 53.873275 75.603464 63.783426 82.459396 73.947266 88.001953 C 73.950266 87.999954 73.950219 87.995332 73.949219 87.990234 C 73.953219 87.986236 73.951172 87.979461 73.951172 87.976562 C 73.954172 87.970565 73.953125 87.966743 73.953125 87.964844 C 73.956125 87.958846 73.958984 87.957223 73.958984 87.953125 C 71.669554 76.192038 68.326252 64.939966 66.138672 58.146484 C 72.052872 53.843157 81.633422 46.537088 90.044922 38.583984 C 90.043922 38.580986 90.043109 38.579125 90.037109 38.578125 C 90.034109 38.572127 90.028391 38.571312 90.025391 38.570312 C 90.021391 38.566314 90.013419 38.565453 90.011719 38.564453 C 90.007719 38.560455 90.008906 38.556687 90.003906 38.554688 C 78.111466 37.097764 66.377304 36.800063 59.240234 36.78125 C 56.975133 29.827029 52.986923 18.457674 48.023438 8.0019531 z M 48.021484 18.292969 C 51.110304 25.766972 53.823267 33.067625 55.435547 38.017578 L 56.332031 40.773438 L 59.228516 40.78125 C 64.336616 40.794715 72.076045 41.124943 80.265625 41.757812 C 74.107185 47.009426 67.995863 51.846816 63.783203 54.912109 L 61.441406 56.617188 L 62.330078 59.371094 C 63.895448 64.2323 65.971861 71.694193 67.900391 79.677734 C 61.005081 75.444679 54.517604 71.128064 50.302734 68.070312 L 47.957031 66.371094 L 45.607422 68.066406 C 41.469542 71.056143 35.017477 75.335426 28.023438 79.634766 C 29.919048 71.768427 32.01918 64.262584 33.625 59.308594 L 34.517578 56.556641 L 32.179688 54.847656 C 28.056207 51.835128 21.990151 47.021389 15.738281 41.697266 C 23.804281 41.069284 31.589045 40.746188 36.796875 40.742188 L 39.693359 40.740234 L 40.595703 37.988281 C 42.186103 33.136911 44.890674 25.882296 48.021484 18.292969 z "
             transform="matrix(0,-1,-1.0003957,0,438.00245,441.36222)"
             id="path4170" />
        </g>
      </g>
    </g>
  </g>
</svg>
