<?xml version="1.0" encoding="UTF-8" standalone="no"?>
<!-- Created with Inkscape (http://www.inkscape.org/) -->

<svg
   xmlns:dc="http://purl.org/dc/elements/1.1/"
   xmlns:cc="http://creativecommons.org/ns#"
   xmlns:rdf="http://www.w3.org/1999/02/22-rdf-syntax-ns#"
   xmlns:svg="http://www.w3.org/2000/svg"
   xmlns="http://www.w3.org/2000/svg"
   xmlns:sodipodi="http://sodipodi.sourceforge.net/DTD/sodipodi-0.dtd"
   xmlns:inkscape="http://www.inkscape.org/namespaces/inkscape"
   width="96"
   height="96"
   id="svg4874"
   version="1.1"
   inkscape:version="0.91+devel r"
   viewBox="0 0 96 96.000001"
   sodipodi:docname="starred.svg">
  <defs
     id="defs4876" />
  <sodipodi:namedview
     id="base"
     pagecolor="#ffffff"
     bordercolor="#666666"
     borderopacity="1.0"
     inkscape:pageopacity="0.0"
     inkscape:pageshadow="2"
     inkscape:zoom="5.6199993"
     inkscape:cx="-4.3416438"
     inkscape:cy="69.76867"
     inkscape:document-units="px"
     inkscape:current-layer="g4780"
     showgrid="true"
     showborder="true"
     fit-margin-top="0"
     fit-margin-left="0"
     fit-margin-right="0"
     fit-margin-bottom="0"
     inkscape:snap-bbox="true"
     inkscape:bbox-paths="true"
     inkscape:bbox-nodes="true"
     inkscape:snap-bbox-edge-midpoints="true"
     inkscape:snap-bbox-midpoints="true"
     inkscape:object-paths="true"
     inkscape:snap-intersection-paths="true"
     inkscape:object-nodes="true"
     inkscape:snap-smooth-nodes="true"
     inkscape:snap-midpoints="true"
     inkscape:snap-object-midpoints="true"
     inkscape:snap-center="true"
     showguides="true"
     inkscape:guide-bbox="true"
     inkscape:snap-global="true">
    <inkscape:grid
       type="xygrid"
       id="grid5451"
       empspacing="8" />
    <sodipodi:guide
       orientation="1,0"
       position="8,-8.0000001"
       id="guide4063" />
    <sodipodi:guide
       orientation="1,0"
       position="4,-8.0000001"
       id="guide4065" />
    <sodipodi:guide
       orientation="0,1"
       position="-8,88.000001"
       id="guide4067" />
    <sodipodi:guide
       orientation="0,1"
       position="-8,92.000001"
       id="guide4069" />
    <sodipodi:guide
       orientation="0,1"
       position="104,4"
       id="guide4071" />
    <sodipodi:guide
       orientation="0,1"
       position="-5,8.0000001"
       id="guide4073" />
    <sodipodi:guide
       orientation="1,0"
       position="88,-8.0000001"
       id="guide4077" />
    <sodipodi:guide
       orientation="0,1"
       position="-8,84.000001"
       id="guide4074" />
    <sodipodi:guide
       orientation="1,0"
       position="12,-8.0000001"
       id="guide4076" />
    <sodipodi:guide
       orientation="1,0"
       position="84,-8.0000001"
       id="guide4080" />
    <sodipodi:guide
       position="48,-8.0000001"
       orientation="1,0"
       id="guide4170" />
    <sodipodi:guide
       position="-8,48"
       orientation="0,1"
       id="guide4172" />
    <sodipodi:guide
       position="92,-8.0000001"
       orientation="1,0"
       id="guide4760" />
  </sodipodi:namedview>
  <metadata
     id="metadata4879">
    <rdf:RDF>
      <cc:Work
         rdf:about="">
        <dc:format>image/svg+xml</dc:format>
        <dc:type
           rdf:resource="http://purl.org/dc/dcmitype/StillImage" />
        <dc:title></dc:title>
      </cc:Work>
    </rdf:RDF>
  </metadata>
  <g
     inkscape:label="Layer 1"
     inkscape:groupmode="layer"
     id="layer1"
     transform="translate(67.857146,-78.50504)">
    <g
       transform="matrix(0,-1,-1,0,373.50506,516.50504)"
       id="g4845"
       style="display:inline">
      <g
         inkscape:export-ydpi="90"
         inkscape:export-xdpi="90"
         inkscape:export-filename="next01.png"
         transform="matrix(-0.9996045,0,0,1,575.94296,-611.00001)"
         id="g4778"
         inkscape:label="Layer 1">
        <g
           transform="matrix(-1,0,0,1,575.99999,611)"
           id="g4780"
           style="display:inline">
          <rect
             style="color:#000000;display:inline;overflow:visible;visibility:visible;fill:none;stroke:none;stroke-width:4;marker:none;enable-background:accumulate"
             id="rect4782"
             width="96.037987"
             height="96"
             x="-438.00244"
             y="345.36221"
             transform="scale(-1,1)" />
          <path
             style="color:#000000;display:inline;overflow:visible;visibility:visible;fill:#808080;fill-opacity:1;fill-rule:nonzero;stroke:none;stroke-width:3;marker:none;enable-background:accumulate"
             d="m 429.99929,393.33773 c 0,0.004 -9.5e-4,0.007 -0.007,0.009 -0.001,0.007 -0.006,0.007 -0.009,0.009 -0.003,0.006 -0.008,0.008 -0.011,0.009 -0.003,0.006 -0.003,0.006 -0.007,0.009 -10.86428,5.06033 -21.9364,8.97057 -28.72087,11.19382 -0.006,7.31383 -0.28348,19.36 -1.77427,30.84126 -0.004,0.001 -0.006,0.002 -0.009,-0.002 -0.007,10e-4 -0.01,-0.004 -0.0129,-0.007 -0.007,-0.001 -0.009,-0.004 -0.011,-0.007 -0.007,-0.001 -0.006,-0.002 -0.009,-0.004 -8.17196,-8.76466 -15.31373,-18.08322 -19.52571,-23.8462 -6.9601,2.25521 -18.50812,5.71446 -29.89293,7.84517 -0.002,-0.003 -0.003,-0.004 0,-0.009 -0.003,-0.006 0.001,-0.01 0.002,-0.0129 -0.001,-0.007 0.001,-0.011 0.002,-0.0129 -0.001,-0.007 -0.001,-0.008 0,-0.011 5.81401,-10.47791 12.47128,-20.14765 16.65275,-25.93264 -4.29657,-5.92015 -11.1555,-15.83137 -16.70025,-25.99521 0.002,-0.003 0.006,-0.003 0.0111,-0.002 0.004,-0.004 0.01,-0.002 0.0129,-0.002 0.006,-0.003 0.011,-0.002 0.0129,-0.002 0.006,-0.003 0.007,-0.004 0.0111,-0.004 11.76574,2.28943 23.02338,5.63169 29.81955,7.81927 4.30503,-5.9142 11.61263,-15.49511 19.56888,-23.90661 0.003,0.001 0.006,0.003 0.007,0.009 0.006,0.003 0.006,0.008 0.007,0.011 0.004,0.004 0.006,0.0112 0.007,0.0129 0.004,0.004 0.007,0.004 0.009,0.009 1.4575,11.89244 1.75546,23.62651 1.77428,30.76358 6.95749,2.26527 18.3316,6.25356 28.7921,11.21756 z"
             id="path4170"
             inkscape:connector-curvature="0" />
        </g>
      </g>
    </g>
  </g>
</svg>
