<?xml version="1.0" encoding="iso-8859-1"?>
<!-- Generator: Adobe Illustrator 17.0.1, SVG Export Plug-In . SVG Version: 6.00 Build 0)  -->
<!DOCTYPE svg PUBLIC "-//W3C//DTD SVG 1.1//EN" "http://www.w3.org/Graphics/SVG/1.1/DTD/svg11.dtd">
<svg version="1.1" id="Layer_1" xmlns="http://www.w3.org/2000/svg" xmlns:xlink="http://www.w3.org/1999/xlink" x="0px" y="0px"
	 width="64px" height="64px" viewBox="0 0 64 64" style="enable-background:new 0 0 64 64;" xml:space="preserve">
<g id="icon-m-speaker">
	<rect id="icon-m-speaker_1_" style="opacity:0;fill:#FFFFFF;" width="64" height="64"/>
	<path style="fill:#FFFFFF;" d="M32.761,54.999c-0.249,0-0.494-0.093-0.683-0.27L18.865,42.392h-6.617
		c-3.07,0-5.476-2.699-5.476-6.145v-8.515c0-3.446,2.405-6.146,5.476-6.146h6.617L32.079,9.268c0.292-0.272,0.717-0.344,1.081-0.186
		c0.365,0.159,0.602,0.519,0.602,0.917v44c0,0.398-0.236,0.759-0.602,0.917C33.031,54.972,32.896,54.999,32.761,54.999z
		 M12.248,23.586c-2.176,0-3.476,2.108-3.476,4.146v8.515c0,2.037,1.3,4.145,3.476,4.145h7.012c0.253,0,0.498,0.097,0.683,0.27
		l11.818,11.036V12.299L19.941,23.318c-0.186,0.172-0.429,0.269-0.682,0.269H12.248z"/>
	<path style="opacity:0.6;fill:#FFFFFF;" d="M42.925,46.312c-0.279,0-0.558-0.117-0.756-0.345c-0.361-0.418-0.316-1.049,0.101-1.411
		c3.662-3.174,5.762-7.75,5.762-12.556s-2.1-9.382-5.761-12.557c-0.417-0.362-0.462-0.993-0.101-1.411
		c0.363-0.418,0.993-0.462,1.411-0.1c4.099,3.554,6.45,8.682,6.45,14.067S47.68,42.514,43.58,46.067
		C43.391,46.231,43.157,46.312,42.925,46.312z"/>
	<path style="opacity:0.6;fill:#FFFFFF;" d="M38.395,41.779c-0.294,0-0.585-0.129-0.782-0.376c-0.345-0.432-0.274-1.062,0.157-1.405
		c2.454-1.958,3.861-4.873,3.861-7.998c0-3.125-1.407-6.041-3.861-7.998c-0.432-0.344-0.502-0.974-0.157-1.405
		s0.973-0.502,1.405-0.158c2.932,2.339,4.613,5.824,4.613,9.562s-1.682,7.222-4.613,9.561
		C38.833,41.708,38.613,41.779,38.395,41.779z"/>
	<path style="opacity:0.6;fill:#FFFFFF;" d="M48.979,52.363c-0.271,0-0.543-0.11-0.74-0.327c-0.371-0.409-0.341-1.042,0.067-1.413
		c5.249-4.768,8.259-11.556,8.259-18.623c0-7.067-3.01-13.855-8.259-18.624c-0.408-0.372-0.438-1.004-0.067-1.413
		c0.372-0.409,1.004-0.438,1.413-0.068c5.664,5.147,8.913,12.475,8.913,20.104c0,7.63-3.249,14.957-8.913,20.104
		C49.459,52.277,49.219,52.363,48.979,52.363z"/>
</g>
</svg>
